<?xml version="1.0" encoding="utf-8"?>
<!-- Generator: Adobe Illustrator 17.0.0, SVG Export Plug-In . SVG Version: 6.00 Build 0)  -->
<!DOCTYPE svg PUBLIC "-//W3C//DTD SVG 1.1//EN" "http://www.w3.org/Graphics/SVG/1.1/DTD/svg11.dtd">
<svg version="1.1" xmlns="http://www.w3.org/2000/svg" xmlns:xlink="http://www.w3.org/1999/xlink" x="0px" y="0px" width="510px"
	 height="810px" viewBox="0 0 510 810" enable-background="new 0 0 510 810" xml:space="preserve">
<g id="back">
	<circle fill="#FAFAFA" stroke="#FAFAFA" stroke-width="4" stroke-miterlimit="10" cx="255" cy="555" r="250"/>
	<path fill="#FFFFFF" d="M232.974,57.379C133.378,68.877,53,150.905,53,253.25v8.585c-14,8.68-24.375,24.761-24.375,43.165
		c0,6.086,1.277,11.916,3.268,17.31C15.349,336.068,4.906,356.801,4.906,380c0,23.198,10.584,43.932,27.128,57.69
		c-1.991,5.394-3.057,11.225-3.057,17.31c0,27.614,22.134,50,49.748,50C84.516,505,90,504.015,95,502.204v-0.002
		c0,0.001,0.016,0.001,0.016,0.001C117.615,524.39,150,543.38,194,552.397v2.588l-65.13-0.11
		c-50.609,0-94.208,30.038-113.996,73.222l1.589,0.557C47.901,730.776,143.032,805,255.468,805
		c112.687,0,207.976-74.556,239.199-177.031l-0.184,0.253c-19.788-43.184-63.508-72.847-114.117-72.847L305.999,556h-0.025
		c0.006-1,0.025-1,0.025-1H305v-3.886C399,535.077,441.583,476,453.533,431H454c0,0-0.643-0.288-0.913-0.42
		c0.139-0.526-0.087-1.268-0.087-1.79v-79.919c16-8.494,26.5-24.955,26.5-43.871c0-16.777-8.141-31.62-20.818-40.69 M454.012,92.817
		C448.192,57.19,417.271,30,379.998,30c-5.974,0-11.775,0.719-17.346,2.039C348.895,15.519,328.178,5,305,5
		c-33.39,0-61.684,21.82-71.4,51.978 M458.869,264.263c-0.019-0.014-0.037-0.029-0.056-0.043
		c27.705-17.78,46.125-48.856,46.125-84.22c0-37.012-20.077-69.328-49.964-86.619"/>
</g>
<g id="traits">
	
		<circle fill="#6151F8" stroke="#6151F8" stroke-width="8" stroke-linecap="round" stroke-linejoin="round" stroke-miterlimit="10" cx="435.499" cy="379.958" r="4.649"/>
	
		<circle fill="#6151F8" stroke="#6151F8" stroke-width="8" stroke-linecap="round" stroke-linejoin="round" stroke-miterlimit="10" cx="285.499" cy="379.958" r="4.649"/>
	<path fill="none" stroke="#6151F8" stroke-width="4" stroke-linecap="round" stroke-linejoin="round" stroke-miterlimit="10" d="
		M395.499,442.542c0,13.83-11.212,25.042-25.042,25.042c-13.83,0-25.042-11.212-25.042-25.042"/>
	<path fill="none" stroke="#6151F8" stroke-width="4" stroke-linecap="round" stroke-linejoin="round" stroke-miterlimit="10" d="
		M455.499,406"/>
	<path fill="none" stroke="#6151F8" stroke-width="4" stroke-linecap="round" stroke-linejoin="round" stroke-miterlimit="10" d="
		M255.499,555"/>
	<path fill="none" stroke="#6151F8" stroke-width="4" stroke-linecap="round" stroke-linejoin="round" stroke-miterlimit="10" d="
		M204.999,554.322c-49.589-8.002-85.114-28.208-109.469-52.119c-14.905-14.633-25.627-30.655-32.828-46.115"/>
	<path fill="none" stroke="#6151F8" stroke-width="4" stroke-linecap="round" stroke-linejoin="round" stroke-miterlimit="10" d="
		M494.491,628.097c-19.788-43.184-63.512-73.222-114.121-73.222L305.999,555"/>
	<path fill="none" stroke="#6151F8" stroke-width="4" stroke-linecap="round" stroke-linejoin="round" stroke-miterlimit="10" d="
		M14.999,628.097c19.788-43.184,63.512-73.222,114.121-73.222l74.37,0.125"/>
	<path fill="none" stroke="#6151F8" stroke-width="4" stroke-linecap="round" stroke-linejoin="round" stroke-miterlimit="10" d="
		M16.525,628.654C47.964,730.776,143.063,805,255.499,805c112.687,0,207.96-74.556,239.183-177.031"/>
	<path fill="none" stroke="#6151F8" stroke-width="4" stroke-linecap="round" stroke-linejoin="round" stroke-miterlimit="10" d="
		M67,456.5c-13,0-25-11.193-25-25s12-25,25-25V430c27.614,0,50-22.386,50-50c0-15.695-7.231-29.701-18.544-38.867"/>
	<path fill="none" stroke="#6151F8" stroke-width="4" stroke-linecap="round" stroke-linejoin="round" stroke-miterlimit="10" d="
		M233.474,57.379C133.878,68.877,54,150.905,54,253.25V262l-0.214-0.186C38.959,270.489,29,286.581,29,305
		c0,6.086,1.09,11.916,3.081,17.31C15.537,336.068,5,356.801,5,380c0,23.198,10.537,43.932,27.081,57.69
		C30.09,443.084,29,448.914,29,455c0,27.614,22.386,50,50,50c5.792,0,11.354-0.985,16.528-2.796"/>
	<path fill="none" stroke="#6151F8" stroke-width="4" stroke-linecap="round" stroke-linejoin="round" stroke-miterlimit="10" d="
		M254.999,555.221c130.389,0,185.877-74.145,199.001-126.431V330v-61"/>
	<path fill="none" stroke="#6151F8" stroke-width="4" stroke-linecap="round" stroke-linejoin="round" stroke-miterlimit="10" d="
		M454.015,92.817C448.195,57.19,417.273,30,380,30c-5.974,0-11.776,0.719-17.347,2.039C348.896,15.519,328.179,5,305,5
		c-33.39,0-61.684,21.82-71.4,51.978"/>
	<path fill="none" stroke="#6151F8" stroke-width="4" stroke-linecap="round" stroke-linejoin="round" stroke-miterlimit="10" d="
		M127.012,301.028c-4.776,16.384-14.992,30.45-28.561,40.111"/>
	<path fill="none" stroke="#6151F8" stroke-width="4" stroke-linecap="round" stroke-linejoin="round" stroke-miterlimit="10" d="
		M249.385,238.119C235.718,277.07,198.621,305,155,305c-9.714,0-19.104-1.385-27.984-3.968"/>
	<path fill="none" stroke="#6151F8" stroke-width="4" stroke-linecap="round" stroke-linejoin="round" stroke-miterlimit="10" d="
		M334.237,250.658C324.989,253.481,315.172,255,305,255c-20.572,0-39.694-6.212-55.591-16.863"/>
	<path fill="none" stroke="#6151F8" stroke-width="4" stroke-linecap="round" stroke-linejoin="round" stroke-miterlimit="10" d="
		M67.259,430.112c0,0,46.553,6.888,87.241,6.888c41.899,0,166.068-23.21,217-23.21c49.941,0,82.5,16.781,82.5,16.781"/>
	<path fill="none" stroke="#6151F8" stroke-width="4" stroke-linecap="round" stroke-linejoin="round" stroke-miterlimit="10" d="
		M204.001,554.5c0,14.083,22.833,25.5,50.999,25.5s50.999-11.417,50.999-25.5"/>
	<path fill="none" stroke="#6151F8" stroke-width="4" stroke-linecap="round" stroke-linejoin="round" stroke-miterlimit="10" d="
		M455.005,93.381C484.892,110.672,505,142.988,505,180c0,55.228-44.772,100-100,100c-27.614,0-52.614-11.193-70.711-29.289"/>
	<path fill="none" stroke="#6151F8" stroke-width="4" stroke-linecap="round" stroke-linejoin="round" stroke-miterlimit="10" d="
		M453.833,348.965C469.419,340.498,480,323.985,480,305c0-16.83-8.316-31.719-21.063-40.78"/>
</g>
<g id="hover">
	<rect x="5" y="305" fill="none" stroke="#000000" stroke-width="10" stroke-miterlimit="10" width="500" height="500"/>
	<rect x="5" y="5" fill="none" stroke="#000000" stroke-width="10" stroke-miterlimit="10" width="500" height="300"/>
</g>
</svg>
