<?xml version="1.0" encoding="utf-8"?>
<!-- Generator: Adobe Illustrator 17.0.0, SVG Export Plug-In . SVG Version: 6.00 Build 0)  -->
<!DOCTYPE svg PUBLIC "-//W3C//DTD SVG 1.1//EN" "http://www.w3.org/Graphics/SVG/1.1/DTD/svg11.dtd">
<svg version="1.1" xmlns="http://www.w3.org/2000/svg" xmlns:xlink="http://www.w3.org/1999/xlink" x="0px" y="0px" width="510px"
	 height="810px" viewBox="0 0 510 810" enable-background="new 0 0 510 810" xml:space="preserve">
<g id="Calque_1">
	<g id="_x31_-Back">
		<circle fill="#FAFAFA" stroke="#FAFAFA" stroke-width="4" stroke-miterlimit="10" cx="255" cy="555" r="250"/>
	</g>
	<g id="Calque_2_-_copie_2">
		<g>
			<path fill="#00FFFF" stroke="#00FFFF" stroke-miterlimit="10" d="M453.5,310L453.5,310"/>
			<path fill="#FFFFFF" d="M453.25,310.473C471.816,302.709,489.454,293,505,282h-56.964l4.964-2v-69.651
				c0-95.879-76.625-178.014-172.195-179.318C280.663,16.631,269.2,5,254.767,5c-14.429,0-26.513,11.623-26.663,26.017
				C132.031,31.74,53,114.124,53,210.349V260l1.302,45.377c0,21.979-13.914,40.623-33.648,47.623h0.117
				c-4.854,2-10.043,2.443-15.424,2.549l-0.238-0.083c0.097,27.641,22.53,49.974,50.193,49.974l0.5,46.582l1.871,1.097l-2.172,2.167
				c1.813,0,3.601-0.101,5.362-0.286l1.84,1.089c7.201,15.46,17.923,31.481,32.828,46.114
				c24.355,23.911,59.88,44.366,109.469,52.369L204.954,556h-1.463l-74.37-0.625c-50.609,0-93.863,28.509-113.651,71.693
				C46.908,729.19,143.064,805.125,255.5,805.125c112.687,0,207.96-74.619,239.183-177.094l-0.191,0.081
				c-19.788-43.184-63.512-72.73-114.121-72.73L305.999,556h-0.749l-6.01-3.927C397.883,537.399,442,474.648,453,428.79V330v-20"/>
		</g>
		
			<circle fill="none" stroke="#6151F8" stroke-width="4" stroke-linecap="round" stroke-linejoin="round" stroke-miterlimit="10" cx="378.9" cy="187.814" r="3.169"/>
		
			<circle fill="none" stroke="#6151F8" stroke-width="4" stroke-linecap="round" stroke-linejoin="round" stroke-miterlimit="10" cx="308.9" cy="187.814" r="3.169"/>
		<path fill="none" stroke="#6151F8" stroke-width="4" stroke-linecap="round" stroke-linejoin="round" stroke-miterlimit="10" d="
			M310.065,210.23c-0.782-1.566-0.147-3.469,1.419-4.251c1.566-0.782,3.469-0.147,4.251,1.419"/>
		<path fill="none" stroke="#6151F8" stroke-width="4" stroke-linecap="round" stroke-linejoin="round" stroke-miterlimit="10" d="
			M357.231,244.148c-21.093-3.214-38.384-17.993-45.202-37.664"/>
	</g>
	<g id="Calque_2">
		<path fill="#FAFAFA" stroke="#FAFAFA" stroke-width="4" stroke-miterlimit="10" d="M55.501,455.286
			c0,0,47.922-0.647,50.301-50.006c0,0,46.116-0.926,49.802-50.302v-24.704c0,0,49.347-4.326,49.347-49.274H54v24.5
			c0,0,6.056,40.984-48.653,50.049c0,0,0.352,47.529,49.354,50.163L55.501,455.286z"/>
		<path fill="#FAFAFA" stroke="#FAFAFA" stroke-width="4" stroke-miterlimit="10" d="M54,231v25h50.521
			c0,0-2.281-25.272-25.261-25.272S54,231,54,231z"/>
	</g>
	<g id="_x31_">
		
			<circle fill="#6151F8" stroke="#6151F8" stroke-width="8" stroke-linecap="round" stroke-linejoin="round" stroke-miterlimit="10" cx="435.499" cy="379.958" r="4.649"/>
		
			<circle fill="#6151F8" stroke="#6151F8" stroke-width="8" stroke-linecap="round" stroke-linejoin="round" stroke-miterlimit="10" cx="285.499" cy="379.958" r="4.649"/>
		<path fill="none" stroke="#6151F8" stroke-width="4" stroke-linecap="round" stroke-linejoin="round" stroke-miterlimit="10" d="
			M395.499,443c0,13-11.212,25.042-25.042,25.042S345.415,456,345.415,443H395.499z"/>
		<path fill="none" stroke="#6151F8" stroke-width="4" stroke-linecap="round" stroke-linejoin="round" stroke-miterlimit="10" d="
			M455.499,406"/>
		<path fill="none" stroke="#6151F8" stroke-width="4" stroke-linecap="round" stroke-linejoin="round" stroke-miterlimit="10" d="
			M255.499,555"/>
		<path fill="none" stroke="#6151F8" stroke-width="4" stroke-linecap="round" stroke-linejoin="round" stroke-miterlimit="10" d="
			M203.374,555l-74.488-0.125C78.277,554.875,35,583.634,15,626.818l0,0C47,728.94,142.829,805,255.264,805
			c112.687,0,208.195-74.556,239.418-177.031l-0.191,0.128c-19.788-43.184-63.512-73.222-114.121-73.222L305.999,555"/>
		<path fill="none" stroke="#6151F8" stroke-width="4" stroke-linecap="round" stroke-linejoin="round" stroke-miterlimit="10" d="
			M254.999,555.002c130.389,0,185.877-73.927,199.001-126.212V330v-20"/>
		<path fill="none" stroke="#6151F8" stroke-width="4" stroke-linecap="round" stroke-linejoin="round" stroke-miterlimit="10" d="
			M306,556v24.5c0,27.891-22.833,50.5-51,50.5s-51-22.61-51-50.5l0.998-26.177c-49.589-8.002-85.114-28.208-109.469-52.119
			c-14.905-14.633-25.627-30.655-32.828-46.115"/>
		
			<line fill="none" stroke="#6151F8" stroke-width="4" stroke-linecap="round" stroke-linejoin="round" stroke-miterlimit="10" x1="180" y1="468" x2="229.999" y2="443"/>
		
			<line fill="none" stroke="#6151F8" stroke-width="4" stroke-linecap="round" stroke-linejoin="round" stroke-miterlimit="10" x1="192" y1="449" x2="218.508" y2="435.746"/>
		
			<line fill="none" stroke="#6151F8" stroke-width="4" stroke-linecap="round" stroke-linejoin="round" stroke-miterlimit="10" x1="192" y1="475" x2="218.508" y2="461.746"/>
		<path fill="none" stroke="#6151F8" stroke-width="4" stroke-linecap="round" stroke-linejoin="round" stroke-miterlimit="10" d="
			M53,253.25"/>
		<path fill="none" stroke="#6151F8" stroke-width="4" stroke-linecap="round" stroke-linejoin="round" stroke-miterlimit="10" d="
			M205.254,288.16"/>
		<path fill="none" stroke="#6151F8" stroke-width="4" stroke-linecap="round" stroke-linejoin="round" stroke-miterlimit="10" d="
			M55.5,455.281c28,0,50.302-22.521,50.302-50.302"/>
		<path fill="none" stroke="#6151F8" stroke-width="4" stroke-linecap="round" stroke-linejoin="round" stroke-miterlimit="10" d="
			M5.5,505.281"/>
		<path fill="none" stroke="#6151F8" stroke-width="4" stroke-linecap="round" stroke-linejoin="round" stroke-miterlimit="10" d="
			M55.802,454.979"/>
		<path fill="none" stroke="#6151F8" stroke-width="4" stroke-linecap="round" stroke-linejoin="round" stroke-miterlimit="10" d="
			M55.802,452l-0.5-46.604c-27.724,0-50.198-22.474-50.198-50.198"/>
		<path fill="none" stroke="#6151F8" stroke-width="4" stroke-linecap="round" stroke-linejoin="round" stroke-miterlimit="10" d="
			M454,280v-69.651C453,113.699,375.65,31,279,31h-49c-96.65,0-176,82.699-176,179.349V260l0.802,45.198
			c0,27.724-22.724,50.198-50.448,50.198"/>
		<path fill="none" stroke="#6151F8" stroke-width="4" stroke-linecap="round" stroke-linejoin="round" stroke-miterlimit="10" d="
			M296.868,32.183c-51.107,3.041-91.614,45.451-91.614,97.321l-0.318,158.691c-3.922,23.872-24.651,42.085-49.634,42.085
			l0.302,24.698c0,27.781-22.521,50.302-50.302,50.302"/>
		<path fill="none" stroke="#6151F8" stroke-width="4" stroke-linecap="round" stroke-linejoin="round" stroke-miterlimit="10" d="
			M55,256h49.552c0-14-10.992-25-24.552-25H54"/>
		<path fill="none" stroke="#6151F8" stroke-width="4" stroke-linecap="round" stroke-linejoin="round" stroke-miterlimit="10" d="
			M204.026,281"/>
		<path fill="none" stroke="#6151F8" stroke-width="4" stroke-linecap="round" stroke-linejoin="round" stroke-miterlimit="10" d="
			M228.721,31.295C228.721,16.773,240.494,5,255.017,5c14.523,0,26.295,11.773,26.295,26.295"/>
		<path fill="none" stroke="#6151F8" stroke-width="4" stroke-linecap="round" stroke-linejoin="round" stroke-miterlimit="10" d="
			M204.951,281c41.507,31.182,93.637,49,149.549,49c55.32,0,109.222-18.415,150.5-49H54"/>
		<g>
			<path fill="none" stroke="#6151F8" stroke-width="4" stroke-linecap="round" stroke-linejoin="round" stroke-miterlimit="10" d="
				M364,117.046C344,133.655,331.414,159,331.414,188l0,0c0,18,13.586,33.895,32.586,35.601V117.046z"/>
		</g>
	</g>
</g>
<g id="hover">
	<rect x="4.5" y="305.5" fill="none" stroke="#000000" stroke-width="10" stroke-miterlimit="10" width="500" height="500"/>
	<rect x="4.5" y="5.5" fill="none" stroke="#000000" stroke-width="10" stroke-miterlimit="10" width="500" height="300"/>
</g>
</svg>
