<?xml version="1.0" encoding="utf-8"?>
<!-- Generator: Adobe Illustrator 17.0.0, SVG Export Plug-In . SVG Version: 6.00 Build 0)  -->
<!DOCTYPE svg PUBLIC "-//W3C//DTD SVG 1.1//EN" "http://www.w3.org/Graphics/SVG/1.1/DTD/svg11.dtd">
<svg version="1.1" xmlns="http://www.w3.org/2000/svg" xmlns:xlink="http://www.w3.org/1999/xlink" x="0px" y="0px" width="510px"
	 height="810px" viewBox="0 0 510 810" enable-background="new 0 0 510 810" xml:space="preserve">
<g id="Calque_1">
	<g id="color">
		<circle fill="#FAFAFA" stroke="#FAFAFA" stroke-width="4" stroke-miterlimit="10" cx="255" cy="555" r="250"/>
	</g>
	<g id="Calque_2_2_">
		<path fill="#FFFFFF" d="M379.806,554.895l-75.032,0.125v-4.002l-1.102,0.068c94.398-15.869,137.185-76.54,148.409-121.259
			l0.15-0.008c0.719,0.031,1.518,0.055,2.245,0.055c27.605,0,50.022-22.378,50.022-49.983s-22.02-49.983-49.625-49.983
			c-0.154,0-0.1,0.01-0.1,0.01v-53.095V252.87c0-109.384-87.553-197.098-196.937-197.098c-19.936,0-39.469,2.84-57.827,8.121
			l3.307-2.379c-8.159-32.612-37.7-56.767-72.84-56.767c-41.442,0-75.058,33.595-75.058,75.037
			c0,25.901,13.113,48.737,33.073,62.222L90.5,140.9c-22.717,31.684-35.726,70.24-35.726,112.219v329.06h-0.377
			c-16.055,13-29.248,28.309-37.716,47.048l-0.152-0.297c31.454,102.173,126.538,176.323,239.03,176.323
			c112.743,0,208.032-74.648,239.271-177.174l-0.519,0.1C474.513,584.974,430.44,554.895,379.806,554.895z"/>
		<path fill="#FAFAFA" d="M52.774,655.179v-414c0,0,13.967-185.408,203.501-185.408S452.774,252.87,452.774,252.87v25.31
			c0,0-46.092,25.716-98.877,25.716s-85.756-23.681-94.219-23.681c0,0-28.741,31.379-56.904,47.929V515.18
			C202.774,515.179,191.7,655.179,52.774,655.179z"/>
		<path fill="#FAFAFA" d="M89.724,142.006c0,0-76.652-49.386-6.448-120.584c0,0,78.137-56.976,119.957,41.574
			C245.052,161.546,89.724,142.006,89.724,142.006z"/>
		<path fill="none" stroke="#6151F8" stroke-width="4" stroke-linecap="round" stroke-linejoin="round" stroke-miterlimit="10" d="
			M88.481,142.006c-19.96-13.485-33.083-36.321-33.083-62.222c0-41.442,33.595-75.037,75.037-75.037
			c35.14,0,64.639,24.155,72.797,56.767"/>
		<path fill="none" stroke="#6151F8" stroke-width="4" stroke-linecap="round" stroke-linejoin="round" stroke-miterlimit="10" d="
			M16.431,628.786c8.089-17.901,20.26-33.56,35.327-45.792"/>
		
			<circle fill="none" stroke="#6151F8" stroke-width="4" stroke-linecap="round" stroke-linejoin="round" stroke-miterlimit="10" cx="305.48" cy="379.891" r="49.983"/>
		
			<circle fill="none" stroke="#6151F8" stroke-width="4" stroke-linecap="round" stroke-linejoin="round" stroke-miterlimit="10" cx="454.554" cy="379.891" r="49.983"/>
		
			<line fill="none" stroke="#6151F8" stroke-width="4" stroke-linecap="round" stroke-linejoin="round" stroke-miterlimit="10" x1="403.774" y1="380.179" x2="355.774" y2="380.179"/>
		<circle fill="#6151F8" stroke="#6151F8" stroke-width="8" stroke-miterlimit="10" cx="465.601" cy="379.891" r="4.651"/>
		<circle fill="#6151F8" stroke="#6151F8" stroke-width="8" stroke-miterlimit="10" cx="315.527" cy="379.891" r="4.651"/>
		<path fill="none" stroke="#6151F8" stroke-width="4" stroke-linecap="round" stroke-linejoin="round" stroke-miterlimit="10" d="
			M405.572,442.505c0,13.837-11.217,25.054-25.054,25.054c-13.837,0-25.054-11.217-25.054-25.054"/>
		<path fill="none" stroke="#6151F8" stroke-width="4" stroke-linecap="round" stroke-linejoin="round" stroke-miterlimit="10" d="
			M206.805,304.853"/>
		<path fill="none" stroke="#6151F8" stroke-width="4" stroke-linecap="round" stroke-linejoin="round" stroke-miterlimit="10" d="
			M455.596,405.945"/>
		<path fill="none" stroke="#6151F8" stroke-width="4" stroke-linecap="round" stroke-linejoin="round" stroke-miterlimit="10" d="
			M255.497,555.02"/>
		<path fill="none" stroke="#6151F8" stroke-width="4" stroke-linecap="round" stroke-linejoin="round" stroke-miterlimit="10" d="
			M254.997,555.02c129.337,0,184.378-73.329,197.396-125.192"/>
		<path fill="none" stroke="#6151F8" stroke-width="4" stroke-linecap="round" stroke-linejoin="round" stroke-miterlimit="10" d="
			M254.997,594.039"/>
		<path fill="none" stroke="#6151F8" stroke-width="4" stroke-linecap="round" stroke-linejoin="round" stroke-miterlimit="10" d="
			M494.608,628.153c-19.798-43.205-63.543-73.258-114.178-73.258l-74.407,0.125"/>
		<path fill="none" stroke="#6151F8" stroke-width="4" stroke-linecap="round" stroke-linejoin="round" stroke-miterlimit="10" d="
			M452.774,329.179v-76.31c0-109.384-87.115-197.098-196.499-197.098l0,0C145.764,55.772,52.774,142.608,52.774,253.12v399.948
			v2.262c83,0,150-66.412,150-148.335V327.907v0.236c20-12.347,41.068-28.68,56.741-48.007l0.163,0.078
			c28.058,15.108,60.118,23.681,94.219,23.681c50.084,0,95.075-17.876,130.065-48.407"/>
		<path fill="none" stroke="#6151F8" stroke-width="4" stroke-linecap="round" stroke-linejoin="round" stroke-miterlimit="10" d="
			M54.898,358.661"/>
		
			<polyline fill="none" stroke="#6151F8" stroke-width="4" stroke-linecap="round" stroke-linejoin="round" stroke-miterlimit="10" points="
			305.774,552.179 305.774,605.372 253.774,580.031 202.774,605.044 202.774,555.179 		"/>
		<path fill="none" stroke="#6151F8" stroke-width="4" stroke-linecap="round" stroke-linejoin="round" stroke-miterlimit="10" d="
			M16.405,628.71c31.454,102.173,126.601,176.434,239.092,176.434c112.743,0,208.064-74.593,239.302-177.119"/>
		
			<line fill="none" stroke="#6151F8" stroke-width="4" stroke-linecap="round" stroke-linejoin="round" stroke-miterlimit="10" x1="252.774" y1="582.179" x2="252.774" y2="805.179"/>
	</g>
</g>
<g id="hover">
	<rect x="4.5" y="304.5" fill="none" stroke="#000000" stroke-width="10" stroke-miterlimit="10" width="500" height="500"/>
	<rect x="4.5" y="4.5" fill="none" stroke="#000000" stroke-width="10" stroke-miterlimit="10" width="500" height="300"/>
</g>
</svg>
