<?xml version="1.0" encoding="utf-8"?>
<!-- Generator: Adobe Illustrator 17.0.0, SVG Export Plug-In . SVG Version: 6.00 Build 0)  -->
<!DOCTYPE svg PUBLIC "-//W3C//DTD SVG 1.1//EN" "http://www.w3.org/Graphics/SVG/1.1/DTD/svg11.dtd">
<svg version="1.1" xmlns="http://www.w3.org/2000/svg" xmlns:xlink="http://www.w3.org/1999/xlink" x="0px" y="0px" width="510px"
	 height="810px" viewBox="0 0 510 810" enable-background="new 0 0 510 810" xml:space="preserve">
<g id="Calque_1">
	<g id="_x31_-Back_1_">
		<circle fill="#FAFAFA" stroke="#FAFAFA" stroke-width="4" stroke-miterlimit="10" cx="254.686" cy="557" r="250"/>
	</g>
	<path fill="#FFFFFF" d="M12.908,623.829c0,0,50.369,182.101,242.092,182.101s238.696-179.516,238.696-179.516
		s-34.263-76.476-110.106-76.476s-79.903,1-79.903,1v-5.216c0,0,118.423-13.74,148-121.994V300.937c0,0,26.001-25.958,26.001-71.5
		S459.93,168.85,459.93,168.85s43.163-26.196,43.163-75.477s-46.42-87.065-88.401-87.065c0,0,25.988,3.401,25.988,24.463
		s-19.297,26.168-24.988,26.168s-237.912,0-237.912,0s-1.211-19.87,19.755-25.821c0,0-32.264,1.619-52.316,26.834
		c0,0-90.845,16.005-94.282,114.11c0,0,0.75,22.105,0.75,33.438s0,141.879,0,150.438s-3.511,19.19-21.182,24.709
		c0,0,10.702-0.604,21.182-5.709v26.675c0,0-16,4.43-16,23.325s16.853,24.999,25,24.999c0,0,26.466,79.77,141.973,100l-81.415,0.004
		C121.245,549.941,46.648,548.491,12.908,623.829z"/>
	<g id="Calque_1_3_">
		<g id="Calque_2_2_">
			<g>
				<path fill="#FAFAFA" d="M26.277,380.515c0,0,25.698,3.423,43.721-24.577h64.689c0,0,43.372,1.658,65.353-58.005
					c0,0,16.901,9.664,26.381,7.987c0,0-24.315,2.107-24.315-33.32s-0.403-44.012-0.403-44.012s3.346-48.65,50.485-48.65
					s166.5,0,166.5,0s10.11,1.375,21.103-2.604c0,0,11.897,37.271,11.897,71.27s0,52.333,0,52.333s26-27.667,26-71.5
					s-14.533-49.195-17.766-60.681c0,0,43.171-22.614,43.171-75.383S456.02,6,414.687,6c0,0,25.993,3.438,25.993,24.771
					s-17.326,26.167-25.659,26.167s-237.333,0-237.333,0s4.361-25.82,19.847-25.82s-31.117-2.151-52.316,26.834
					c0,0-94.282,18.568-94.282,114.11l0.75,91.209v90.667C51.687,353.938,50.534,380.515,26.277,380.515z"/>
				<path fill="none" stroke="#FAFAFA" stroke-width="4" stroke-miterlimit="10" d="M26.277,380.515c0,0,25.698,3.423,43.721-24.577
					h64.689c0,0,43.372,1.658,65.353-58.005c0,0,16.901,9.664,26.381,7.987c0,0-24.315,2.107-24.315-33.32
					s-0.403-44.012-0.403-44.012s3.346-48.65,50.485-48.65s166.5,0,166.5,0s10.11,1.375,21.103-2.604
					c0,0,11.897,37.271,11.897,71.27s0,52.333,0,52.333s26-27.667,26-71.5s-14.533-49.195-17.766-60.681
					c0,0,43.171-22.614,43.171-75.383S456.02,6,414.687,6c0,0,25.993,3.438,25.993,24.771s-17.326,26.167-25.659,26.167
					s-237.333,0-237.333,0s4.361-25.82,19.847-25.82s-31.117-2.151-52.316,26.834c0,0-94.282,18.568-94.282,114.11l0.75,91.209
					v90.667C51.687,353.938,50.534,380.515,26.277,380.515z"/>
				<path fill="#FAFAFA" d="M26.277,380.515c0,0,25.698,3.423,43.721-24.577h64.689c0,0,43.372,1.658,65.353-58.005
					c0,0,16.901,9.664,26.381,7.987c0,0-24.315,2.107-24.315-33.32s-0.403-44.012-0.403-44.012s3.346-48.65,50.485-48.65
					s166.5,0,166.5,0s10.11,1.375,21.103-2.604c0,0,11.897,37.271,11.897,71.27s0,52.333,0,52.333s26-27.667,26-71.5
					s-14.533-49.195-17.766-60.681c0,0,43.171-22.614,43.171-75.383S456.02,6,414.687,6c0,0,25.993,3.438,25.993,24.771
					s-17.326,26.167-25.659,26.167s-237.333,0-237.333,0s4.361-25.82,19.847-25.82s-31.117-2.151-52.316,26.834
					c0,0-94.282,18.568-94.282,114.11l0.75,91.209v90.667C51.687,353.938,50.534,380.515,26.277,380.515z"/>
			</g>
			<circle fill="#FAFAFA" stroke="#FAFAFA" stroke-width="4" stroke-miterlimit="10" cx="225.144" cy="437.938" r="25.042"/>
		</g>
		<g id="Calque_1_4_">
			<path fill="none" d="M492.369,622.907l-0.191,0.128c-19.788-43.184-63.512-73.222-114.121-73.222l-74.37,0.125h-1.609
				l-5.051-3.139c98.922-14.561,143.134-77.151,154.661-123.071v-56.79v-51v-11l0.03-3.601c16.217-19.495,25.97-44.558,25.97-71.899
				c0-22.348-6.516-43.173-17.752-60.681l-0.006,0.093c-0.005-0.056-0.009-0.093-0.009-0.093
				c25.83-15.183,43.171-43.252,43.171-75.383c0-48.272-40.132-87.373-88.405-87.373l0.005,0.307
				c13.81,0,26.005,11.443,26.005,25.253s-11.195,25.378-25.005,25.378H315.687h-63l-74.907-0.522l-0.093-0.478
				c0-13.807,11.193-25,25-25c-23.117,0-43.78,10.511-57.469,27.014l-0.577,0.1"/>
			<path fill="none" stroke="#6151F8" stroke-width="4" stroke-linecap="round" stroke-linejoin="round" stroke-miterlimit="10" d="
				M393.186,437.938c0,13-11.212,25.042-25.042,25.042s-25.042-12.042-25.042-25.042"/>
			<path fill="none" stroke="#6151F8" stroke-width="4" stroke-linecap="round" stroke-linejoin="round" stroke-miterlimit="10" d="
				M253.186,549.938"/>
			<path fill="none" stroke="#6151F8" stroke-width="4" stroke-linecap="round" stroke-linejoin="round" stroke-miterlimit="10" d="
				M201.177,549.938l-74.37-0.125c-50.609,0-93.863,28.759-113.651,71.943l-0.248,2.073c0,0,41.502,182.101,242.092,182.101
				s237.177-182.895,237.177-182.895c-19.788-43.184-63.512-73.222-114.121-73.222l-74.37,0.125"/>
			<path fill="none" stroke="#6151F8" stroke-width="4" stroke-linecap="round" stroke-linejoin="round" stroke-miterlimit="10" d="
				M492.369,622.907"/>
			<path fill="none" stroke="#6151F8" stroke-width="4" stroke-linecap="round" stroke-linejoin="round" stroke-miterlimit="10" d="
				M303.687,550.938v24.5c0,27.891-22.833,50.5-51,50.5s-51-22.61-51-50.5l0.998-26.177c-49.589-8.002-85.114-28.208-109.469-52.119
				c-14.905-14.633-25.627-30.655-32.828-46.115"/>
			<path fill="none" stroke="#6151F8" stroke-width="4" stroke-linecap="round" stroke-linejoin="round" stroke-miterlimit="10" d="
				M60.687,399.938c-13.807,0-25,11.193-25,25s11.193,25,25,25"/>
			<path fill="none" stroke="#6151F8" stroke-width="4" stroke-linecap="round" stroke-linejoin="round" stroke-miterlimit="10" d="
				M164.687,305.938"/>
			
				<circle fill="#6151F8" stroke="#6151F8" stroke-width="4" stroke-linecap="round" stroke-linejoin="round" stroke-miterlimit="10" cx="433.186" cy="375.545" r="4.649"/>
			
				<circle fill="#6151F8" stroke="#6151F8" stroke-width="4" stroke-linecap="round" stroke-linejoin="round" stroke-miterlimit="10" cx="283.186" cy="381.545" r="4.649"/>
			<path fill="none" stroke="#6151F8" stroke-width="4" stroke-linecap="round" stroke-linejoin="round" stroke-miterlimit="10" d="
				M252.687,305.938"/>
			
				<line fill="none" stroke="#6151F8" stroke-width="4" stroke-linecap="round" stroke-linejoin="round" stroke-miterlimit="10" x1="51.687" y1="401.938" x2="51.687" y2="374.938"/>
			<path fill="none" stroke="#6151F8" stroke-width="4" stroke-linecap="round" stroke-linejoin="round" stroke-miterlimit="10" d="
				M452.337,300.585c15.845-19.386,25.35-44.156,25.35-71.147c0-22.348-6.516-43.173-17.752-60.681"/>
			<path fill="none" stroke="#6151F8" stroke-width="4" stroke-linecap="round" stroke-linejoin="round" stroke-miterlimit="10" d="
				M199.649,297.678c-7.734,33.103-36.631,58.261-71.963,58.261h-57"/>
			<path fill="none" stroke="#6151F8" stroke-width="4" stroke-linecap="round" stroke-linejoin="round" stroke-miterlimit="10" d="
				M227.687,55.938"/>
			<path fill="none" stroke="#6151F8" stroke-width="4" stroke-linecap="round" stroke-linejoin="round" stroke-miterlimit="10" d="
				M202.687,30.938c-23.117,0-43.78,10.511-57.468,27.014l-0.577,0.1"/>
			<path fill="none" stroke="#6151F8" stroke-width="4" stroke-linecap="round" stroke-linejoin="round" stroke-miterlimit="10" d="
				M26.687,380.938c13.807,0,25-11.193,25-25v-10"/>
			<path fill="none" stroke="#6151F8" stroke-width="4" stroke-linecap="round" stroke-linejoin="round" stroke-miterlimit="10" d="
				M26.687,380.938c18.507,0,34.665-10.055,43.311-25"/>
			<path fill="none" stroke="#6151F8" stroke-width="4" stroke-linecap="round" stroke-linejoin="round" stroke-miterlimit="10" d="
				M227.187,305.938c-13.807,0-25-11.193-25-25l-0.5-51c0-27.614,22.886-49.742,50.5-49.742l163.5,0.567
				c48.272,0,87.405-39.117,87.405-87.389S462.958,6,414.687,6l0.005,0.308c13.81,0,26.005,11.443,26.005,25.252
				s-11.195,25.377-25.005,25.377H315.687h-63l-74.907-0.522l-0.093-0.478c0-13.807,11.193-25,25-25"/>
			<path fill="none" stroke="#6151F8" stroke-width="4" stroke-linecap="round" stroke-linejoin="round" stroke-miterlimit="10" d="
				M227.187,305.938c-10.008,0-19.33-2.94-27.147-8.005"/>
			<path fill="none" stroke="#6151F8" stroke-width="4" stroke-linecap="round" stroke-linejoin="round" stroke-miterlimit="10" d="
				M327.687,549.938v25c0,41.421-33.579,75-75,75s-75-33.579-75-75v-25"/>
			<path fill="none" stroke="#6151F8" stroke-width="4" stroke-linecap="round" stroke-linejoin="round" stroke-miterlimit="10" d="
				M252.686,549.92c130.389,0,185.877-73.907,199.001-126.192l0.405-169.242c0-26.923-4.257-52.853-12.134-77.151"/>
			<path fill="none" stroke="#6151F8" stroke-width="4" stroke-linecap="round" stroke-linejoin="round" stroke-miterlimit="10" d="
				M202.686,549.259l-0.026,0.678h-1.482"/>
			<path fill="none" stroke="#6151F8" stroke-width="4" stroke-linecap="round" stroke-linejoin="round" stroke-miterlimit="10" d="
				M144.65,58.098c-53.41,10.443-93.713,57.497-93.713,113.964l0.75,22.875v151v10c0,13.807-11.193,25-25,25
				c9.108,0,17.645-2.44,25-6.695v0.695"/>
			<path fill="none" stroke="#6151F8" stroke-width="4" stroke-linecap="round" stroke-linejoin="round" stroke-miterlimit="10" d="
				M27.687,139.438c0-13.531,10.969-24.5,24.5-24.5c4.291,0,8.325,1.103,11.832,3.042"/>
			<path fill="none" stroke="#6151F8" stroke-width="4" stroke-linecap="round" stroke-linejoin="round" stroke-miterlimit="10" d="
				M64.092,117.738c-6.715-4.37-11.155-11.941-11.155-20.55c0-13.531,10.969-24.5,24.5-24.5"/>
		</g>
	</g>
	<g id="Calque_2_1_" display="none">
		
			<path display="inline" fill="none" stroke="#6151F8" stroke-width="4" stroke-linecap="round" stroke-linejoin="round" stroke-miterlimit="10" d="
			M1131.424,361.938c0-2.567-2.081-4.649-4.649-4.649c-2.567,0-4.649,2.081-4.649,4.649"/>
		
			<path display="inline" fill="none" stroke="#6151F8" stroke-width="4" stroke-linecap="round" stroke-linejoin="round" stroke-miterlimit="10" d="
			M981.424,361.938c0-2.567-2.081-4.649-4.649-4.649c-2.567,0-4.649,2.081-4.649,4.649"/>
	</g>
</g>
<g id="hover">
	<rect x="4.5" y="306.5" fill="none" stroke="#000000" stroke-width="10" stroke-miterlimit="10" width="500" height="500"/>
	<rect x="4.5" y="6.5" fill="none" stroke="#000000" stroke-width="10" stroke-miterlimit="10" width="500" height="300"/>
</g>
</svg>
