<?xml version="1.0" encoding="utf-8"?>
<!-- Generator: Adobe Illustrator 17.0.0, SVG Export Plug-In . SVG Version: 6.00 Build 0)  -->
<!DOCTYPE svg PUBLIC "-//W3C//DTD SVG 1.1//EN" "http://www.w3.org/Graphics/SVG/1.1/DTD/svg11.dtd">
<svg version="1.1" id="Calque_1" xmlns="http://www.w3.org/2000/svg" xmlns:xlink="http://www.w3.org/1999/xlink" x="0px" y="0px"
	 width="1000px" height="1000px" viewBox="0 0 1000 1000" enable-background="new 0 0 1000 1000" xml:space="preserve">
<g id="_x34_-pasteque-b">
	<g>
		<g>
			<g>
				
					<line fill="none" stroke="#CCCCCC" stroke-width="8" stroke-linecap="round" stroke-linejoin="round" x1="524.288" y1="473.891" x2="513.681" y2="484.498"/>
				
					<line fill="none" stroke="#CCCCCC" stroke-width="8" stroke-linecap="round" stroke-linejoin="round" stroke-dasharray="25.5319,27.234" x1="494.424" y1="503.755" x2="466.741" y2="531.438"/>
				
					<line fill="none" stroke="#CCCCCC" stroke-width="8" stroke-linecap="round" stroke-linejoin="round" x1="457.113" y1="541.066" x2="446.506" y2="551.673"/>
			</g>
		</g>
		<g>
			<g>
				
					<line fill="none" stroke="#CCCCCC" stroke-width="8" stroke-linecap="round" stroke-linejoin="round" x1="405" y1="450" x2="420" y2="450"/>
				
					<line fill="none" stroke="#CCCCCC" stroke-width="8" stroke-linecap="round" stroke-linejoin="round" stroke-dasharray="25,27" x1="447" y1="450" x2="486" y2="450"/>
				
					<line fill="none" stroke="#CCCCCC" stroke-width="8" stroke-linecap="round" stroke-linejoin="round" x1="499" y1="450" x2="514" y2="450"/>
			</g>
		</g>
		<g>
			<g>
				
					<line fill="none" stroke="#CCCCCC" stroke-width="8" stroke-linecap="round" stroke-linejoin="round" x1="548" y1="483" x2="548" y2="498"/>
				
					<line fill="none" stroke="#CCCCCC" stroke-width="8" stroke-linecap="round" stroke-linejoin="round" stroke-dasharray="26,27" x1="548" y1="525" x2="548" y2="564"/>
				
					<line fill="none" stroke="#CCCCCC" stroke-width="8" stroke-linecap="round" stroke-linejoin="round" x1="548" y1="578" x2="548" y2="593"/>
			</g>
		</g>
	</g>
	<g>
		
			<line fill="none" stroke="#CCCCCC" stroke-width="8" stroke-linecap="round" stroke-linejoin="round" stroke-miterlimit="10" x1="637.344" y1="569.055" x2="635.223" y2="566.934"/>
		
			<line fill="none" stroke="#CCCCCC" stroke-width="8" stroke-linecap="round" stroke-linejoin="round" stroke-miterlimit="10" x1="432.99" y1="364.701" x2="428.04" y2="359.751"/>
		
			<line fill="none" stroke="#CCCCCC" stroke-width="8" stroke-linecap="round" stroke-linejoin="round" stroke-miterlimit="10" x1="399.756" y1="331.467" x2="428.04" y2="359.751"/>
		
			<line fill="none" stroke="#CCCCCC" stroke-width="8" stroke-linecap="round" stroke-linejoin="round" stroke-miterlimit="10" x1="698.155" y1="629.866" x2="665.628" y2="597.339"/>
		<path fill="none" stroke="#CCCCCC" stroke-width="8" stroke-linecap="round" stroke-linejoin="round" stroke-miterlimit="10" d="
			M399.756,331.467l-29.687-29.687c-90.51,90.51-90.637,237.636,0.029,328.302s237.723,90.753,328.389,0.087"/>
		
			<line fill="none" stroke="#CCCCCC" stroke-width="8" stroke-linecap="round" stroke-linejoin="round" stroke-miterlimit="10" x1="665.628" y1="597.339" x2="637.344" y2="569.055"/>
		
			<line fill="none" stroke="#CCCCCC" stroke-width="8" stroke-linecap="round" stroke-linejoin="round" stroke-miterlimit="10" x1="635.223" y1="566.934" x2="432.99" y2="364.701"/>
		<path fill="none" stroke="#CCCCCC" stroke-width="8" stroke-linecap="round" stroke-linejoin="round" stroke-miterlimit="10" d="
			M433.394,364.987c-1.531,1.531-3.012,3.092-4.458,4.673"/>
		<path fill="none" stroke="#CCCCCC" stroke-width="8" stroke-linecap="round" stroke-linejoin="round" stroke-miterlimit="10" d="
			M590.729,596.981c-52.087,22.404-114.797,12.342-157.335-30.195c-41.309-41.309-51.986-101.642-32.05-152.795"/>
		<path fill="none" stroke="#CCCCCC" stroke-width="8" stroke-linecap="round" stroke-linejoin="round" stroke-miterlimit="10" d="
			M401.343,413.991c6.219-15.956,15.414-31.018,27.592-44.331"/>
		<path fill="none" stroke="#CCCCCC" stroke-width="8" stroke-linecap="round" stroke-linejoin="round" stroke-miterlimit="10" d="
			M633.225,568.705c-12.718,12.246-27.144,21.673-42.497,28.277"/>
		<path fill="none" stroke="#CCCCCC" stroke-width="8" stroke-linecap="round" stroke-linejoin="round" stroke-miterlimit="10" d="
			M635.193,566.786c-0.65,0.65-1.309,1.284-1.968,1.919"/>
	</g>
</g>
<g id="_x34_-pasteque-a">
	<circle fill="none" stroke="#000000" stroke-miterlimit="10" cx="534.106" cy="465.817" r="232.165"/>
	<circle fill="none" stroke="#000000" stroke-miterlimit="10" cx="534.106" cy="465.973" r="142.694"/>
</g>
</svg>
