<?xml version="1.0" encoding="utf-8"?>
<!-- Generator: Adobe Illustrator 17.0.0, SVG Export Plug-In . SVG Version: 6.00 Build 0)  -->
<!DOCTYPE svg PUBLIC "-//W3C//DTD SVG 1.1//EN" "http://www.w3.org/Graphics/SVG/1.1/DTD/svg11.dtd">
<svg version="1.1" id="Calque_1" xmlns="http://www.w3.org/2000/svg" xmlns:xlink="http://www.w3.org/1999/xlink" x="0px" y="0px"
	 width="1000px" height="1000px" viewBox="0 0 1000 1000" enable-background="new 0 0 1000 1000" xml:space="preserve">
<g id="_x35_-hotdog-b">
	<path fill="none" stroke="#CCCCCC" stroke-width="8" stroke-linecap="round" stroke-linejoin="round" stroke-miterlimit="10" d="
		M640.055,350.086c12.912,12.912,12.912,33.846,0,46.758c-12.912,12.912-33.846,12.912-46.758,0l0,0.028
		c-12.912-12.912-33.846-12.912-46.758,0c-12.912,12.912-12.912,33.846,0,46.758"/>
	<path fill="none" stroke="#CCCCCC" stroke-width="8" stroke-linecap="round" stroke-linejoin="round" stroke-miterlimit="10" d="
		M546.539,443.601c12.912,12.912,12.912,33.846,0,46.758c-12.912,12.912-33.846,12.912-46.758,0v0.028
		c-12.912-12.912-33.846-12.912-46.758,0c-12.912,12.912-12.912,33.846,0,46.758"/>
	<path fill="none" stroke="#CCCCCC" stroke-width="8" stroke-linecap="round" stroke-linejoin="round" stroke-miterlimit="10" d="
		M453.023,537.117c12.912,12.912,12.912,33.846,0,46.758c-12.912,12.912-33.846,12.912-46.758,0v0.028
		c-12.912-12.912-33.846-12.912-46.758,0c-12.912,12.912-12.912,33.846,0,46.758"/>
	<path fill="none" stroke="#CCCCCC" stroke-width="8" stroke-linecap="round" stroke-linejoin="round" stroke-miterlimit="10" d="
		M586.585,335.707c-0.076,0.076-0.145,0.155-0.22,0.231l-0.176-0.176L335.166,586.785l0.173,0.173
		c-21.307,21.419-21.275,56.054,0.101,77.43c21.376,21.376,56.01,21.408,77.43,0.101l0.078,0.078l251.023-251.023l-0.081-0.081
		c0.076-0.075,0.156-0.144,0.231-0.22c21.411-21.411,21.411-56.125,0-77.536C642.71,314.296,607.996,314.296,586.585,335.707z"/>
	<path fill="none" stroke="#CCCCCC" stroke-width="8" stroke-linecap="round" stroke-linejoin="round" stroke-miterlimit="10" d="
		M589.69,332.826c-32.54,2.652-64.345,16.425-89.239,41.32c-0.055,0.055-0.108,0.112-0.163,0.167l-0.266-0.266L373.45,500.619
		l0.264,0.264c-24.897,24.901-38.667,56.715-41.312,89.262"/>
	<path fill="none" stroke="#CCCCCC" stroke-width="8" stroke-linecap="round" stroke-linejoin="round" stroke-miterlimit="10" d="
		M409.374,667.687c32.66-2.567,64.588-16.326,89.577-41.316c0.055-0.055,0.124-0.128,0.124-0.128l0.039,0.039l126.572-126.572
		l-0.037-0.037c25.074-25.079,38.81-56.951,41.382-89.564"/>
</g>
<g id="_x35_-hotdog-a">
	<circle fill="none" stroke="#000000" stroke-miterlimit="10" cx="616.789" cy="373.506" r="33.063"/>
	<circle fill="none" stroke="#000000" stroke-miterlimit="10" cx="569.526" cy="420.785" r="33.063"/>
	<circle fill="none" stroke="#000000" stroke-miterlimit="10" cx="523.16" cy="466.937" r="33.063"/>
	<circle fill="none" stroke="#000000" stroke-miterlimit="10" cx="476.16" cy="513.937" r="33.063"/>
	<circle fill="none" stroke="#000000" stroke-miterlimit="10" cx="429.16" cy="560.937" r="33.063"/>
	<circle fill="none" stroke="#000000" stroke-miterlimit="10" cx="383.16" cy="606.937" r="33.063"/>
	<circle fill="none" stroke="#000000" stroke-miterlimit="10" cx="625.353" cy="374.506" r="54.826"/>
	<circle fill="none" stroke="#000000" stroke-miterlimit="10" cx="374.204" cy="625.655" r="54.826"/>
	<circle fill="none" stroke="#000000" stroke-miterlimit="10" cx="600.731" cy="475.52" r="142.694"/>
	<circle fill="none" stroke="#000000" stroke-miterlimit="10" cx="525.337" cy="396.52" r="142.694"/>
	<circle fill="none" stroke="#000000" stroke-miterlimit="10" cx="475.096" cy="600.624" r="142.694"/>
	<circle fill="none" stroke="#000000" stroke-miterlimit="10" cx="398.096" cy="525.624" r="142.694"/>
</g>
</svg>
