<?xml version="1.0" encoding="utf-8"?>
<!-- Generator: Adobe Illustrator 17.0.0, SVG Export Plug-In . SVG Version: 6.00 Build 0)  -->
<!DOCTYPE svg PUBLIC "-//W3C//DTD SVG 1.1//EN" "http://www.w3.org/Graphics/SVG/1.1/DTD/svg11.dtd">
<svg version="1.1" id="Calque_1" xmlns="http://www.w3.org/2000/svg" xmlns:xlink="http://www.w3.org/1999/xlink" x="0px" y="0px"
	 width="1000px" height="1000px" viewBox="0 0 1000 1000" enable-background="new 0 0 1000 1000" xml:space="preserve">
<g id="_x31_-pizza-b_1_">
	
		<circle fill="none" stroke="#CCCCCC" stroke-width="8" stroke-linecap="round" stroke-linejoin="round" stroke-miterlimit="10" cx="500.098" cy="500" r="232.165"/>
	<path fill="none" stroke="#CCCCCC" stroke-width="8" stroke-linecap="round" stroke-linejoin="round" stroke-miterlimit="10" d="
		M680.713,457.586l-2.354-1.742c-0.045-0.036-0.091-0.071-0.136-0.107c-12.766-10.038-20.975-25.611-20.975-43.112
		c0-2.049,0.122-4.068,0.341-6.059c0.12-1.092,0.278-2.172,0.461-3.244c0.036-0.331,0.053-0.667,0.084-0.999
		c0.214-1.967,0.331-3.962,0.331-5.985c0-30.28-24.547-54.826-54.826-54.826c-2.049,0-4.068,0.122-6.059,0.341
		c-1.072,0.183-2.152,0.341-3.244,0.461c-1.99,0.219-4.01,0.341-6.059,0.341c-17.5,0-33.073-8.209-43.112-20.976
		c-0.036-0.045-0.071-0.091-0.107-0.136l-1.742-2.354c-10.034-12.844-25.656-21.112-43.218-21.112s-32.817,8.267-42.852,21.112
		c-0.56,0.801-1.141,1.585-1.742,2.354c-10.034,12.844-25.656,21.112-43.218,21.112c-2.049,0-4.068-0.122-6.059-0.341
		c-1.092-0.12-2.172-0.278-3.244-0.461c-1.99-0.219-4.01-0.341-6.059-0.341c-15.375,0-29.264,6.337-39.22,16.532
		c-10.195,9.956-16.532,23.844-16.532,39.22c0,2.049,0.122,4.068,0.341,6.059c0.183,1.072,0.341,2.152,0.461,3.244
		c0.219,1.99,0.341,4.01,0.341,6.059c0,17.5-8.209,33.073-20.976,43.112c-0.045,0.036-0.091,0.071-0.136,0.107l-2.354,1.742
		c-12.844,10.034-21.112,25.656-21.112,43.218s8.267,32.817,21.112,42.852c0.801,0.56,1.585,1.141,2.354,1.742
		c12.844,10.034,21.112,25.656,21.112,43.218c0,2.049-0.122,4.068-0.341,6.059c-0.12,1.092-0.278,2.172-0.461,3.244
		c-0.219,1.99-0.341,4.01-0.341,6.059c0,30.28,24.547,54.826,54.826,54.826c2.023,0,4.019-0.118,5.985-0.331
		c0.332-0.031,0.668-0.047,0.999-0.084c1.072-0.183,2.152-0.341,3.244-0.461c1.99-0.219,4.01-0.341,6.059-0.341
		c17.562,0,33.184,8.267,43.218,21.112c0.601,0.769,1.182,1.553,1.742,2.354c10.034,12.844,25.289,21.112,42.852,21.112
		s33.184-8.267,43.218-21.112l1.742-2.354c0.036-0.045,0.071-0.091,0.107-0.136c10.038-12.767,25.611-20.976,43.112-20.976
		c1.733,0,3.44,0.103,5.131,0.263c3.293,0.617,6.685,0.954,10.157,0.954c15.159,0,28.879-6.153,38.804-16.096
		c9.944-9.925,16.097-23.646,16.097-38.805c0-3.472-0.337-6.864-0.955-10.157c-0.159-1.691-0.263-3.398-0.263-5.13
		c0-17.562,8.267-33.184,21.112-43.218c0.769-0.601,1.553-1.182,2.354-1.742c12.844-10.034,21.112-25.289,21.112-42.852
		C701.825,483.242,693.558,467.621,680.713,457.586z"/>
	
		<circle fill="none" stroke="#CCCCCC" stroke-width="8" stroke-linecap="round" stroke-linejoin="round" stroke-miterlimit="10" cx="499.781" cy="356.14" r="33.063"/>
	
		<circle fill="none" stroke="#CCCCCC" stroke-width="8" stroke-linecap="round" stroke-linejoin="round" stroke-miterlimit="10" cx="499.781" cy="643.102" r="33.063"/>
	
		<circle fill="none" stroke="#CCCCCC" stroke-width="8" stroke-linecap="round" stroke-linejoin="round" stroke-miterlimit="10" cx="414.649" cy="414.989" r="33.063"/>
	
		<circle fill="none" stroke="#CCCCCC" stroke-width="8" stroke-linecap="round" stroke-linejoin="round" stroke-miterlimit="10" cx="583.914" cy="584.254" r="33.063"/>
	
		<circle fill="none" stroke="#CCCCCC" stroke-width="8" stroke-linecap="round" stroke-linejoin="round" stroke-miterlimit="10" cx="415.649" cy="584.254" r="33.063"/>
	
		<circle fill="none" stroke="#CCCCCC" stroke-width="8" stroke-linecap="round" stroke-linejoin="round" stroke-miterlimit="10" cx="584.914" cy="414.989" r="33.063"/>
	
		<circle fill="none" stroke="#CCCCCC" stroke-width="8" stroke-linecap="round" stroke-linejoin="round" stroke-miterlimit="10" cx="357.8" cy="500.121" r="33.063"/>
	
		<circle fill="none" stroke="#CCCCCC" stroke-width="8" stroke-linecap="round" stroke-linejoin="round" stroke-miterlimit="10" cx="643.762" cy="500.121" r="33.063"/>
	<g>
		<g>
			
				<line fill="none" stroke="#CCCCCC" stroke-width="8" stroke-linecap="round" stroke-linejoin="round" x1="500" y1="268" x2="500" y2="283"/>
			
				<line fill="none" stroke="#CCCCCC" stroke-width="8" stroke-linecap="round" stroke-linejoin="round" stroke-dasharray="28,30" x1="500" y1="313" x2="500" y2="702"/>
			
				<line fill="none" stroke="#CCCCCC" stroke-width="8" stroke-linecap="round" stroke-linejoin="round" x1="500" y1="717" x2="500" y2="732"/>
		</g>
	</g>
	<g>
		<g>
			
				<line fill="none" stroke="#CCCCCC" stroke-width="8" stroke-linecap="round" stroke-linejoin="round" x1="732" y1="500" x2="717" y2="500"/>
			
				<line fill="none" stroke="#CCCCCC" stroke-width="8" stroke-linecap="round" stroke-linejoin="round" stroke-dasharray="28,30" x1="687" y1="500" x2="298" y2="500"/>
			
				<line fill="none" stroke="#CCCCCC" stroke-width="8" stroke-linecap="round" stroke-linejoin="round" x1="283" y1="500" x2="268" y2="500"/>
		</g>
	</g>
	<g>
		<g>
			
				<line fill="none" stroke="#CCCCCC" stroke-width="8" stroke-linecap="round" stroke-linejoin="round" x1="664.147" y1="664.049" x2="653.54" y2="653.442"/>
			
				<line fill="none" stroke="#CCCCCC" stroke-width="8" stroke-linecap="round" stroke-linejoin="round" stroke-dasharray="27.9399,29.8026" x1="632.466" y1="632.369" x2="357.192" y2="357.095"/>
			
				<line fill="none" stroke="#CCCCCC" stroke-width="8" stroke-linecap="round" stroke-linejoin="round" x1="346.656" y1="346.558" x2="336.049" y2="335.951"/>
		</g>
	</g>
	<g>
		<g>
			
				<line fill="none" stroke="#CCCCCC" stroke-width="8" stroke-linecap="round" stroke-linejoin="round" x1="664.147" y1="335.951" x2="653.54" y2="346.558"/>
			
				<line fill="none" stroke="#CCCCCC" stroke-width="8" stroke-linecap="round" stroke-linejoin="round" stroke-dasharray="27.9399,29.8026" x1="632.466" y1="367.631" x2="357.192" y2="642.905"/>
			
				<line fill="none" stroke="#CCCCCC" stroke-width="8" stroke-linecap="round" stroke-linejoin="round" x1="346.656" y1="653.442" x2="336.049" y2="664.049"/>
		</g>
	</g>
</g>
<g id="_x31_-pizza-a">
	<circle fill="none" stroke="#000000" stroke-miterlimit="10" cx="583.914" cy="584.254" r="33.063"/>
	<circle fill="none" stroke="#000000" stroke-miterlimit="10" cx="414.649" cy="414.989" r="33.063"/>
	<circle fill="none" stroke="#000000" stroke-miterlimit="10" cx="584.914" cy="414.989" r="33.063"/>
	<circle fill="none" stroke="#000000" stroke-miterlimit="10" cx="643.452" cy="500" r="33.063"/>
	<circle fill="none" stroke="#000000" stroke-miterlimit="10" cx="357.8" cy="500" r="33.063"/>
	<circle fill="none" stroke="#000000" stroke-miterlimit="10" cx="499.626" cy="642.826" r="33.063"/>
	<circle fill="none" stroke="#000000" stroke-miterlimit="10" cx="499.626" cy="356.174" r="33.063"/>
	<circle fill="none" stroke="#000000" stroke-miterlimit="10" cx="415.649" cy="584.254" r="33.063"/>
	<circle fill="none" stroke="#000000" stroke-miterlimit="10" cx="499.156" cy="500" r="232.165"/>
	<circle fill="none" stroke="#000000" stroke-miterlimit="10" cx="352.656" cy="501" r="54.826"/>
	<circle fill="none" stroke="#000000" stroke-miterlimit="10" cx="646.906" cy="501" r="54.826"/>
	<circle fill="none" stroke="#000000" stroke-miterlimit="10" cx="588.626" cy="288.314" r="54.826"/>
	<circle fill="none" stroke="#000000" stroke-miterlimit="10" cx="412.709" cy="288.314" r="54.826"/>
	<circle fill="none" stroke="#000000" stroke-miterlimit="10" cx="588.626" cy="712.613" r="54.826"/>
	<circle fill="none" stroke="#000000" stroke-miterlimit="10" cx="412.709" cy="712.613" r="54.826"/>
	<circle fill="none" stroke="#000000" stroke-miterlimit="10" cx="500.781" cy="352.875" r="54.826"/>
	<circle fill="none" stroke="#000000" stroke-miterlimit="10" cx="500.781" cy="647.125" r="54.826"/>
	<circle fill="none" stroke="#000000" stroke-miterlimit="10" cx="603.814" cy="396.967" r="54.826"/>
	<circle fill="none" stroke="#000000" stroke-miterlimit="10" cx="396.748" cy="604.033" r="54.826"/>
	<circle fill="none" stroke="#000000" stroke-miterlimit="10" cx="603.814" cy="604.033" r="54.826"/>
	<circle fill="none" stroke="#000000" stroke-miterlimit="10" cx="396.748" cy="396.967" r="54.826"/>
	<circle fill="none" stroke="#000000" stroke-miterlimit="10" cx="287.095" cy="412.967" r="54.826"/>
	<circle fill="none" stroke="#000000" stroke-miterlimit="10" cx="712.467" cy="412.967" r="54.826"/>
	<circle fill="none" stroke="#000000" stroke-miterlimit="10" cx="287.095" cy="587.545" r="54.826"/>
	<circle fill="none" stroke="#000000" stroke-miterlimit="10" cx="712.467" cy="587.545" r="54.826"/>
</g>
</svg>
