<?xml version="1.0" encoding="utf-8"?>
<!-- Generator: Adobe Illustrator 17.0.0, SVG Export Plug-In . SVG Version: 6.00 Build 0)  -->
<!DOCTYPE svg PUBLIC "-//W3C//DTD SVG 1.1//EN" "http://www.w3.org/Graphics/SVG/1.1/DTD/svg11.dtd">
<svg version="1.1" id="Calque_1" xmlns="http://www.w3.org/2000/svg" xmlns:xlink="http://www.w3.org/1999/xlink" x="0px" y="0px"
	 width="1000px" height="1000px" viewBox="0 0 1000 1000" enable-background="new 0 0 1000 1000" xml:space="preserve">
<g id="_x36_-pates-b">
	<g>
		
			<line fill="none" stroke="#CCCCCC" stroke-width="8" stroke-linecap="round" stroke-linejoin="round" stroke-miterlimit="10" x1="448.374" y1="448.946" x2="318.208" y2="318.78"/>
	</g>
	<g>
		
			<line fill="none" stroke="#CCCCCC" stroke-width="8" stroke-linecap="round" stroke-linejoin="round" stroke-miterlimit="10" x1="398.374" y1="448.946" x2="268.208" y2="318.78"/>
	</g>
	<path fill="none" stroke="#CCCCCC" stroke-width="8" stroke-linecap="round" stroke-linejoin="round" stroke-miterlimit="10" d="
		M475.195,365.581c-8.834-6.103-19.546-9.679-31.097-9.679c-17.562,0-32.817,8.267-42.852,21.112
		c-0.56,0.801-1.141,1.585-1.742,2.354c-10.034,12.844-25.656,21.112-43.218,21.112c-2.049,0-4.068-0.122-6.059-0.341
		c-1.092-0.12-2.172-0.278-3.244-0.461c-1.99-0.219-4.01-0.341-6.059-0.341c-15.375,0-29.264,6.337-39.22,16.532
		c-8.799,8.593-14.724,20.115-16.182,32.994"/>
	<path fill="none" stroke="#CCCCCC" stroke-width="8" stroke-linecap="round" stroke-linejoin="round" stroke-miterlimit="10" d="
		M466.422,390.408c-14.255,0.719-27.068,6.89-36.415,16.461c-3.006,2.935-5.676,6.213-7.948,9.769 M730.639,448.863
		c0.084-1.223,0.128-2.456,0.128-3.7c0-30.28-24.547-54.826-54.826-54.826c-2.049,0-4.068,0.122-6.059,0.341
		c-1.072,0.183-2.152,0.341-3.244,0.461c-1.99,0.219-4.01,0.341-6.059,0.341c-17.5,0-33.073-8.209-43.112-20.976
		c-0.036-0.045-0.071-0.091-0.107-0.136l-1.742-2.354c-10.034-12.844-25.656-21.112-43.218-21.112s-32.817,8.267-42.852,21.112
		c-0.56,0.801-1.141,1.585-1.742,2.354c-0.182,0.233-0.366,0.465-0.552,0.695"/>
	
		<circle fill="none" stroke="#CCCCCC" stroke-width="8" stroke-linecap="round" stroke-linejoin="round" stroke-miterlimit="10" cx="499.452" cy="388.965" r="33.063"/>
	<path fill="none" stroke="#CCCCCC" stroke-width="8" stroke-linecap="round" stroke-linejoin="round" stroke-miterlimit="10" d="
		M601.062,448.946c0-18.26,14.803-33.063,33.063-33.063s33.063,14.803,33.063,33.063"/>
	<path fill="none" stroke="#CCCCCC" stroke-width="8" stroke-linecap="round" stroke-linejoin="round" stroke-miterlimit="10" d="
		M267.933,448.863c0-18.26,14.803-33.063,33.063-33.063c0.237,0,0.474,0.003,0.71,0.007"/>
	<path fill="#FFFFFF" stroke="#CCCCCC" stroke-width="8" stroke-miterlimit="10" d="M381.586,448.863
		c0-18.26,14.803-33.063,33.063-33.063s33.063,14.803,33.063,33.063"/>
	<path fill="none" stroke="#CCCCCC" stroke-width="8" stroke-linecap="round" stroke-linejoin="round" stroke-miterlimit="10" d="
		M731.617,448.863c0,128.221-103.944,232.165-232.165,232.165S267.286,577.085,267.286,448.863H731.617z"/>
	<g>
		<g>
			
				<line fill="none" stroke="#CCCCCC" stroke-width="8" stroke-linecap="round" stroke-linejoin="round" x1="271" y1="479" x2="286" y2="479"/>
			
				<line fill="none" stroke="#CCCCCC" stroke-width="8" stroke-linecap="round" stroke-linejoin="round" stroke-dasharray="32,34" x1="320" y1="479" x2="696" y2="479"/>
			
				<line fill="none" stroke="#CCCCCC" stroke-width="8" stroke-linecap="round" stroke-linejoin="round" x1="713" y1="479" x2="728" y2="479"/>
		</g>
	</g>
	<g>
		<g>
			
				<line fill="none" stroke="#CCCCCC" stroke-width="8" stroke-linecap="round" stroke-linejoin="round" x1="271" y1="489" x2="286" y2="489"/>
			
				<line fill="none" stroke="#CCCCCC" stroke-width="8" stroke-linecap="round" stroke-linejoin="round" stroke-dasharray="32,34" x1="320" y1="489" x2="696" y2="489"/>
			
				<line fill="none" stroke="#CCCCCC" stroke-width="8" stroke-linecap="round" stroke-linejoin="round" x1="713" y1="489" x2="728" y2="489"/>
		</g>
	</g>
</g>
<g id="_x36_-pates-a">
	<circle fill="none" stroke="#000000" stroke-miterlimit="10" cx="499.648" cy="388.682" r="33.063"/>
	<circle fill="none" stroke="#000000" stroke-miterlimit="10" cx="414.648" cy="448.682" r="33.063"/>
	<circle fill="none" stroke="#000000" stroke-miterlimit="10" cx="634.648" cy="448.682" r="33.063"/>
	<circle fill="none" stroke="#000000" stroke-miterlimit="10" cx="300.648" cy="448.682" r="33.063"/>
	<circle fill="none" stroke="#000000" stroke-miterlimit="10" cx="499.156" cy="448.946" r="232.165"/>
	<circle fill="none" stroke="#000000" stroke-miterlimit="10" cx="572.414" cy="402.383" r="54.826"/>
	<circle fill="none" stroke="#000000" stroke-miterlimit="10" cx="676.414" cy="445.383" r="54.826"/>
	<circle fill="none" stroke="#000000" stroke-miterlimit="10" cx="659.414" cy="336.383" r="54.826"/>
	<circle fill="none" stroke="#000000" stroke-miterlimit="10" cx="469.414" cy="445.383" r="54.826"/>
	<circle fill="none" stroke="#000000" stroke-miterlimit="10" cx="444.414" cy="410.383" r="54.826"/>
	<circle fill="none" stroke="#000000" stroke-miterlimit="10" cx="354.414" cy="346.383" r="54.826"/>
	<circle fill="none" stroke="#000000" stroke-miterlimit="10" cx="340.414" cy="454.383" r="54.826"/>
</g>
</svg>
