<?xml version="1.0" encoding="utf-8"?>
<!-- Generator: Adobe Illustrator 17.0.0, SVG Export Plug-In . SVG Version: 6.00 Build 0)  -->
<!DOCTYPE svg PUBLIC "-//W3C//DTD SVG 1.1//EN" "http://www.w3.org/Graphics/SVG/1.1/DTD/svg11.dtd">
<svg version="1.1" id="Calque_1" xmlns="http://www.w3.org/2000/svg" xmlns:xlink="http://www.w3.org/1999/xlink" x="0px" y="0px"
	 width="1000px" height="1000px" viewBox="0 0 1000 1000" enable-background="new 0 0 1000 1000" xml:space="preserve">
<g id="_x32_-kebab-b">
	<path fill="none" stroke="#CCCCCC" stroke-width="8" stroke-linecap="round" stroke-linejoin="round" stroke-miterlimit="10" d="
		M335.024,635.123c-0.065,1.012-0.158,2.022-0.278,3.03c-0.007,0.057-0.014,0.115-0.021,0.172l-0.433,2.896
		c-1.987,16.178,3.213,33.07,15.632,45.488c7.435,7.435,16.38,12.19,25.834,14.382 M327.093,483.749
		c-2.21,3.606-4.877,7.011-7.999,10.134c-1.449,1.449-2.963,2.791-4.525,4.043c-0.857,0.687-1.733,1.34-2.62,1.968
		c-1.562,1.253-3.076,2.595-4.525,4.043c-10.872,10.872-16.212,25.174-16.043,39.422c-0.169,14.249,5.171,28.55,16.043,39.422
		c1.449,1.449,2.963,2.791,4.525,4.043c0.888,0.628,1.763,1.281,2.62,1.968c1.562,1.253,3.076,2.595,4.525,4.043
		c1.574,1.574,3.032,3.22,4.375,4.928 M385.559,384.3c-13.059,0.677-25.92,5.995-35.895,15.97
		c-12.418,12.418-17.359,29.051-15.372,45.229c0.171,0.962,0.314,1.928,0.433,2.896c0.527,4.287,0.548,8.623,0.065,12.914"/>
	<path fill="none" stroke="#CCCCCC" stroke-width="8" stroke-linecap="round" stroke-linejoin="round" stroke-miterlimit="10" d="
		M467.061,331.131c-5.017,0.792-10.123,0.886-15.162,0.283c-0.057-0.007-0.115-0.014-0.172-0.021l-2.896-0.433
		c-16.178-1.987-33.07,3.213-45.488,15.632c-9.978,9.978-15.128,22.676-15.737,35.672 M601.076,321.374
		c-1.953-1.486-3.83-3.121-5.614-4.905c-1.449-1.449-2.791-2.963-4.043-4.525c-0.687-0.857-1.34-1.733-1.968-2.62
		c-0.208-0.259-0.434-0.509-0.647-0.766c-1.24-1.542-2.567-3.036-3.998-4.467c-21.411-21.411-56.125-21.411-77.536,0
		c-1.449,1.449-2.791,2.963-4.043,4.525c-0.628,0.888-1.281,1.763-1.968,2.62c-1.253,1.562-2.595,3.076-4.043,4.525
		c-3.841,3.841-8.111,6.992-12.655,9.453 M703.879,373.854c-2.115-9.72-6.92-18.932-14.544-26.555
		c-12.418-12.418-29.311-17.619-45.488-15.632l-2.896,0.433c-0.057,0.007-0.115,0.014-0.172,0.021
		c-1.32,0.158-2.644,0.268-3.971,0.33"/>
	<path fill="none" stroke="#CCCCCC" stroke-width="8" stroke-linecap="round" stroke-linejoin="round" stroke-miterlimit="10" d="
		M353.929,396.427c-1.88-4.154-2.927-8.765-2.927-13.621c0-18.26,14.803-33.063,33.063-33.063c4.975,0,9.694,1.099,13.926,3.067"/>
	<path fill="none" stroke="#CCCCCC" stroke-width="8" stroke-linecap="round" stroke-linejoin="round" stroke-miterlimit="10" d="
		M312.176,499.735c-5.612-3.207-10.343-8.09-13.358-14.354c-7.919-16.453-1.001-36.211,15.452-44.131
		c6.17-2.97,12.805-3.853,19.106-2.929"/>
	<path fill="none" stroke="#CCCCCC" stroke-width="8" stroke-linecap="round" stroke-linejoin="round" stroke-miterlimit="10" d="
		M333.887,648.714c-7.74,2.005-16.226,1.225-23.838-2.834c-16.113-8.591-22.211-28.617-13.62-44.73
		c3.534-6.628,9.003-11.562,15.34-14.475"/>
	<path fill="none" stroke="#CCCCCC" stroke-width="8" stroke-linecap="round" stroke-linejoin="round" stroke-miterlimit="10" d="
		M501.197,311.312c-3.202-5.779-8.163-10.658-14.57-13.741c-16.453-7.919-36.211-1.001-44.131,15.452
		c-2.733,5.679-3.699,11.752-3.115,17.596"/>
	<path fill="none" stroke="#CCCCCC" stroke-width="8" stroke-linecap="round" stroke-linejoin="round" stroke-miterlimit="10" d="
		M650.288,331.258c1.574-7.36,0.658-15.294-3.161-22.455c-8.591-16.113-28.617-22.211-44.73-13.62
		c-5.959,3.177-10.549,7.919-13.532,13.448"/>
	<path fill="none" stroke="#CCCCCC" stroke-width="8" stroke-linecap="round" stroke-linejoin="round" stroke-miterlimit="10" d="
		M386.087,712.102c-90.666-90.666-90.666-237.665,0-328.331s237.665-90.666,328.331,0L386.087,712.102z"/>
	<g>
		<g>
			<g>
				
					<line fill="none" stroke="#CCCCCC" stroke-width="8" stroke-linecap="round" stroke-linejoin="round" x1="526.221" y1="525.01" x2="515.614" y2="514.403"/>
				
					<line fill="none" stroke="#CCCCCC" stroke-width="8" stroke-linecap="round" stroke-linejoin="round" stroke-dasharray="25.5319,27.234" x1="496.357" y1="495.146" x2="468.675" y2="467.464"/>
				
					<line fill="none" stroke="#CCCCCC" stroke-width="8" stroke-linecap="round" stroke-linejoin="round" x1="459.046" y1="457.835" x2="448.439" y2="447.228"/>
			</g>
		</g>
		<g>
			<g>
				
					<line fill="none" stroke="#CCCCCC" stroke-width="8" stroke-linecap="round" stroke-linejoin="round" x1="550" y1="406" x2="550" y2="421"/>
				
					<line fill="none" stroke="#CCCCCC" stroke-width="8" stroke-linecap="round" stroke-linejoin="round" stroke-dasharray="25,27" x1="550" y1="448" x2="550" y2="486"/>
				
					<line fill="none" stroke="#CCCCCC" stroke-width="8" stroke-linecap="round" stroke-linejoin="round" x1="550" y1="500" x2="550" y2="515"/>
			</g>
		</g>
		<g>
			<g>
				
					<line fill="none" stroke="#CCCCCC" stroke-width="8" stroke-linecap="round" stroke-linejoin="round" x1="517" y1="548" x2="502" y2="548"/>
				
					<line fill="none" stroke="#CCCCCC" stroke-width="8" stroke-linecap="round" stroke-linejoin="round" stroke-dasharray="26,27" x1="475" y1="548" x2="436" y2="548"/>
				
					<line fill="none" stroke="#CCCCCC" stroke-width="8" stroke-linecap="round" stroke-linejoin="round" x1="422" y1="548" x2="407" y2="548"/>
			</g>
		</g>
	</g>
</g>
<g id="_x32_-kebab-a">
	<circle fill="none" stroke="#000000" stroke-miterlimit="10" cx="549.965" cy="548.191" r="232.165"/>
	<circle fill="none" stroke="#000000" stroke-miterlimit="10" cx="545.965" cy="342.609" r="54.826"/>
	<circle fill="none" stroke="#000000" stroke-miterlimit="10" cx="441.432" cy="386.084" r="54.826"/>
	<circle fill="none" stroke="#000000" stroke-miterlimit="10" cx="346.203" cy="542.696" r="54.826"/>
	<circle fill="none" stroke="#000000" stroke-miterlimit="10" cx="388.606" cy="438.911" r="54.826"/>
	<circle fill="none" stroke="#000000" stroke-miterlimit="10" cx="388.606" cy="647.775" r="54.826"/>
	<circle fill="none" stroke="#000000" stroke-miterlimit="10" cx="650.022" cy="386.084" r="54.826"/>
	<circle fill="none" stroke="#000000" stroke-miterlimit="10" cx="617.959" cy="324.351" r="33.063"/>
	<circle fill="none" stroke="#000000" stroke-miterlimit="10" cx="472.208" cy="327.351" r="33.063"/>
	<circle fill="none" stroke="#000000" stroke-miterlimit="10" cx="384.064" cy="383.264" r="33.063"/>
	<circle fill="none" stroke="#000000" stroke-miterlimit="10" cx="328.601" cy="470.973" r="33.063"/>
	<circle fill="none" stroke="#000000" stroke-miterlimit="10" cx="325.598" cy="616.712" r="33.063"/>
	<circle fill="none" stroke="#000000" stroke-miterlimit="10" cx="549.643" cy="548" r="142.694"/>
</g>
</svg>
