<?xml version="1.0" encoding="utf-8"?>
<!-- Generator: Adobe Illustrator 17.0.0, SVG Export Plug-In . SVG Version: 6.00 Build 0)  -->
<!DOCTYPE svg PUBLIC "-//W3C//DTD SVG 1.1//EN" "http://www.w3.org/Graphics/SVG/1.1/DTD/svg11.dtd">
<svg version="1.1" xmlns="http://www.w3.org/2000/svg" xmlns:xlink="http://www.w3.org/1999/xlink" x="0px" y="0px" width="1024px"
	 height="768px" viewBox="0 0 1024 768" enable-background="new 0 0 1024 768" xml:space="preserve">
<g id="back" xmlns:sketch="http://www.bohemiancoding.com/sketch/ns">
	<title>iPad Landscape</title>
	<desc>Created with Sketch.</desc>
	<g id="Page-1" sketch:type="MSPage">
		<g id="iPad-Landscape" sketch:type="MSArtboardGroup">
			<rect id="Rectangle-89" sketch:type="MSShapeGroup" fill="#FFFFFF" width="1024" height="768">
			</rect>
			<rect id="Rectangle-35" sketch:type="MSShapeGroup" fill="#6151F8" width="392" height="768">
			</rect>
			<path id="Rectangle-110" sketch:type="MSShapeGroup" fill="#FFFFFF" d="M356.983,194.161h35.355l2.854,14.295l-2.854,21.06
				L356.983,194.161z"/>
			<g id="Imported-Layers-Copy-3" transform="translate(110.000000, 40.000000)" sketch:type="MSLayerGroup">
				<path id="Fill-1" sketch:type="MSShapeGroup" fill="#5A4BE6" d="M134.655,240.381c-43.417,0-78.653-35.203-78.653-78.629
					s35.237-78.629,78.653-78.629V240.381"/>
				<path id="Fill-2" sketch:type="MSShapeGroup" fill="#5A4BE6" d="M14.441,161.857c0,3.916-3.175,7.09-7.092,7.09
					c-3.917,0-7.092-3.174-7.092-7.09c0-3.916,3.175-7.09,7.092-7.09C11.266,154.767,14.441,157.941,14.441,161.857L14.441,161.857z
					"/>
				<path id="Stroke-3" sketch:type="MSShapeGroup" fill="none" stroke="#FFFFFF" stroke-width="3" d="M14.441,161.857
					c0,3.916-3.175,7.09-7.092,7.09c-3.917,0-7.092-3.174-7.092-7.09c0-3.916,3.175-7.09,7.092-7.09
					C11.266,154.767,14.441,157.941,14.441,161.857L14.441,161.857z"/>
				<path id="Fill-4" sketch:type="MSShapeGroup" fill="#5A4BE6" d="M171.748,161.857c0,3.916-3.175,7.09-7.092,7.09
					c-3.917,0-7.092-3.174-7.092-7.09c0-3.916,3.175-7.09,7.092-7.09C168.572,154.767,171.748,157.941,171.748,161.857
					L171.748,161.857z"/>
				<path id="Stroke-5" sketch:type="MSShapeGroup" fill="none" stroke="#FFFFFF" stroke-width="3" d="M171.748,161.857
					c0,3.916-3.175,7.09-7.092,7.09c-3.917,0-7.092-3.174-7.092-7.09c0-3.916,3.175-7.09,7.092-7.09
					C168.572,154.767,171.748,157.941,171.748,161.857L171.748,161.857z"/>
				
					<path id="Stroke-6" sketch:type="MSShapeGroup" fill="none" stroke="#FFFFFF" stroke-width="3" stroke-linecap="round" stroke-linejoin="round" d="
					M134.655,0.127v-0.06C86.846,37.764,56.156,96.242,56.156,161.661h-0.155c0,43.403,35.214,78.756,78.653,78.756V0.127
					L134.655,0.127z"/>
				
					<path id="Stroke-8" sketch:type="MSShapeGroup" fill="none" stroke="#FFFFFF" stroke-width="3" stroke-linecap="round" stroke-linejoin="round" d="
					M19.885,216.813c-2.039-4.243-3.849-8.615-5.415-13.102c-0.051,0.02-0.102,0.039-0.153,0.06
					c-3.602,1.538-5.275,5.704-3.737,9.305"/>
				
					<path id="Stroke-9" sketch:type="MSShapeGroup" fill="none" stroke="#FFFFFF" stroke-width="3" stroke-linecap="round" stroke-linejoin="round" d="
					M14.469,203.711c3.566-1.427,7.638,0.246,9.155,3.797 M19.887,216.812c0,0-0.002,0.001-0.003,0.001
					c17.976,37.4,53.7,64.661,96.263,70.861"/>
				<path id="Stroke-11" sketch:type="MSShapeGroup" fill="none" stroke="#FFFFFF" stroke-width="3" d="M23.624,207.508
					c-1.517-3.551-5.588-5.224-9.155-3.797"/>
			</g>
			<path id="Bonjour-_x21_-_xD83D__xDC4B_" sketch:type="MSShapeGroup" d="M414.678,194.8V213h4.082c1.69,0,3.328-0.182,4.628-0.754
				c1.664-0.728,2.782-2.028,2.782-4.316c0-2.262-1.118-3.744-3.666-4.368c2.158-0.754,2.938-2.132,2.938-3.952
				c0-1.69-0.702-2.834-1.768-3.588c-1.274-0.884-3.068-1.222-4.81-1.222H414.678z M416.602,211.232v-6.656h3.302
				c2.73,0,4.212,1.378,4.212,3.354c0,1.456-0.676,2.288-1.664,2.73c-1.196,0.546-2.86,0.572-4.238,0.572H416.602z M416.602,196.568
				h1.482c1.716,0,3.276,0.104,4.29,0.754c0.728,0.468,1.144,1.222,1.144,2.418c0,2.132-1.846,3.068-4.836,3.068h-2.08V196.568z
				 M435.608,200c-3.77,0-6.396,2.964-6.396,6.656s2.626,6.656,6.396,6.656s6.396-2.964,6.396-6.656S439.378,200,435.608,200
				L435.608,200z M440.184,206.656c0,2.652-1.742,5.044-4.576,5.044c-2.834,0-4.576-2.392-4.576-5.044
				c0-2.652,1.742-5.044,4.576-5.044C438.442,201.612,440.184,204.004,440.184,206.656L440.184,206.656z M445.566,200.312V213h1.768
				v-8.424c0.832-1.612,2.366-2.964,4.264-2.964c2.834,0,3.276,2.418,3.276,4.81V213h1.768v-6.864c0-3.822-1.17-6.136-4.784-6.136
				c-1.95,0-3.51,0.858-4.524,2.548v-2.236H445.566z M463.168,197.478v-2.444H461.4v2.444H463.168z M457.448,218.148
				c0.65,0.364,1.43,0.572,2.21,0.572c1.118,0,2.028-0.39,2.652-1.248c0.78-1.04,0.858-2.444,0.858-3.614v-13.546H461.4v13.39
				c0,1.196-0.026,2.184-0.468,2.782c-0.286,0.39-0.78,0.624-1.56,0.624c-0.52,0-0.988-0.182-1.378-0.416L457.448,218.148z
				 M473.1,200c-3.77,0-6.396,2.964-6.396,6.656s2.626,6.656,6.396,6.656c3.77,0,6.396-2.964,6.396-6.656S476.87,200,473.1,200
				L473.1,200z M477.676,206.656c0,2.652-1.742,5.044-4.576,5.044c-2.834,0-4.576-2.392-4.576-5.044
				c0-2.652,1.742-5.044,4.576-5.044C475.934,201.612,477.676,204.004,477.676,206.656L477.676,206.656z M493.952,213v-12.688
				h-1.768v8.424c-0.832,1.612-2.366,2.964-4.264,2.964c-2.834,0-3.276-2.418-3.276-4.81v-6.578h-1.768v6.864
				c0,3.822,1.17,6.136,4.784,6.136c1.95,0,3.51-0.858,4.524-2.548V213H493.952z M500.452,200.312h-1.768V213h1.768v-8.476
				c0.91-1.612,1.872-2.704,3.328-2.704c0.494,0,0.806,0.052,1.196,0.234l0.234-1.95c-0.364-0.078-0.728-0.104-1.066-0.104
				c-1.768,0-2.99,1.3-3.692,2.704V200.312z M517.066,194.8h-2.288v2.73l0.26,10.348h1.768l0.26-10.348V194.8z M517.014,213v-2.626
				h-2.184V213H517.014z M418.292,252.8h-1.924v13.416c0,2.236-0.26,3.328-2.522,3.328c-0.546,0-1.04-0.13-1.482-0.312l-0.468,1.638
				c0.624,0.208,1.43,0.442,2.288,0.442c3.198,0,4.108-1.924,4.108-4.81V252.8z M433.814,265.098
				c0.026-0.234,0.078-0.754,0.078-1.17c0-3.146-2.366-5.928-5.642-5.928c-3.458,0-6.214,2.834-6.214,6.578
				c0,3.718,2.262,6.734,6.422,6.734c1.924,0,4.134-0.988,5.148-2.886l-1.248-0.806c-0.91,1.716-2.34,2.184-4.03,2.184
				c-2.756,0-4.368-2.262-4.524-4.706H433.814z M432.15,263.59h-8.294c0.364-2.366,1.95-4.082,4.394-4.082
				C430.408,259.508,432.046,261.458,432.15,263.59L432.15,263.59z M443.954,258.312V271h1.768v-8.424
				c0.832-1.612,2.366-2.964,3.978-2.964c2.548,0,2.99,2.418,2.99,4.81V271h1.768v-6.916c0-0.65-0.026-1.248-0.104-1.82
				c0.962-1.638,2.496-2.652,4.004-2.652c2.522,0,3.068,2.392,3.068,4.81V271h1.768v-6.864c0-3.978-1.378-6.136-4.758-6.136
				c-1.586,0-2.86,0.572-4.472,2.626c-0.624-1.664-1.872-2.626-4.004-2.626c-1.664,0-3.224,0.858-4.238,2.548v-2.236H443.954z
				 M470.344,252.8h-1.976l-1.274,6.162h1.638L470.344,252.8z M482.174,271h1.586v-7.748c0-3.276-1.17-5.252-4.94-5.252
				c-1.664,0-3.64,0.572-4.81,1.118l0.598,1.586c0.988-0.546,2.652-1.092,4.134-1.092c2.21,0,3.25,1.17,3.25,3.276v0.702
				c-1.144-0.286-2.028-0.39-2.886-0.39c-2.704,0-5.616,1.222-5.616,4.342c0,2.392,2.054,3.77,4.394,3.77
				c1.456,0,2.938-0.468,4.16-1.794L482.174,271z M481.992,265.02v2.938c-1.196,1.144-2.6,1.898-4.056,1.898
				c-1.482,0-2.678-0.988-2.678-2.522c0-1.976,2.028-2.678,3.77-2.678C479.938,264.656,480.9,264.76,481.992,265.02L481.992,265.02z
				 M488.31,258.312V277.5h1.768v-7.748c1.092,1.014,2.626,1.56,4.056,1.56c3.718,0,6.526-3.094,6.526-6.708
				c0-3.614-2.782-6.604-6.5-6.604c-1.56,0-3.12,0.676-4.082,1.95v-1.638H488.31z M490.078,262.004
				c0.728-1.482,2.47-2.392,4.03-2.392c2.782,0,4.732,2.366,4.732,5.096c0,2.704-1.976,4.992-4.732,4.992
				c-1.456,0-3.094-0.78-4.03-2.002V262.004z M504.222,258.312V277.5h1.768v-7.748c1.092,1.014,2.626,1.56,4.056,1.56
				c3.718,0,6.526-3.094,6.526-6.708c0-3.614-2.782-6.604-6.5-6.604c-1.56,0-3.12,0.676-4.082,1.95v-1.638H504.222z M505.99,262.004
				c0.728-1.482,2.47-2.392,4.03-2.392c2.782,0,4.732,2.366,4.732,5.096c0,2.704-1.976,4.992-4.732,4.992
				c-1.456,0-3.094-0.78-4.03-2.002V262.004z M530.742,265.098c0.026-0.234,0.078-0.754,0.078-1.17c0-3.146-2.366-5.928-5.642-5.928
				c-3.458,0-6.214,2.834-6.214,6.578c0,3.718,2.262,6.734,6.422,6.734c1.924,0,4.134-0.988,5.148-2.886l-1.248-0.806
				c-0.91,1.716-2.34,2.184-4.03,2.184c-2.756,0-4.368-2.262-4.524-4.706H530.742z M529.078,263.59h-8.294
				c0.364-2.366,1.95-4.082,4.394-4.082C527.336,259.508,528.974,261.458,529.078,263.59L529.078,263.59z M536.15,251.5h-1.768V271
				h1.768V251.5z M542.65,251.5h-1.768V271h1.768V251.5z M557.99,265.098c0.026-0.234,0.078-0.754,0.078-1.17
				c0-3.146-2.366-5.928-5.642-5.928c-3.458,0-6.214,2.834-6.214,6.578c0,3.718,2.262,6.734,6.422,6.734
				c1.924,0,4.134-0.988,5.148-2.886l-1.248-0.806c-0.91,1.716-2.34,2.184-4.03,2.184c-2.756,0-4.368-2.262-4.524-4.706H557.99z
				 M556.326,263.59h-8.294c0.364-2.366,1.95-4.082,4.394-4.082C554.584,259.508,556.222,261.458,556.326,263.59L556.326,263.59z
				 M587.058,252.8h-3.354l-5.98,15.132L571.77,252.8h-3.328V271h1.924v-16.588l6.63,16.588h1.43l6.708-16.64V271h1.924V252.8z
				 M602.71,265.098c0.026-0.234,0.078-0.754,0.078-1.17c0-3.146-2.366-5.928-5.642-5.928c-3.458,0-6.214,2.834-6.214,6.578
				c0,3.718,2.262,6.734,6.422,6.734c1.924,0,4.134-0.988,5.148-2.886l-1.248-0.806c-0.91,1.716-2.34,2.184-4.03,2.184
				c-2.756,0-4.368-2.262-4.524-4.706H602.71z M601.046,263.59h-8.294c0.364-2.366,1.95-4.082,4.394-4.082
				C599.304,259.508,600.942,261.458,601.046,263.59L601.046,263.59z M600.032,252.514l-1.326-1.014l-3.068,4.108l1.118,0.884
				L600.032,252.514z M612.07,259.924v-1.612h-3.692v-3.172h-1.768v3.172h-1.794v1.612h1.794v7.202c0,2.626,1.222,4.108,3.692,4.108
				c0.754,0,1.456-0.234,2.028-0.546l-0.442-1.404c-0.572,0.208-1.092,0.338-1.56,0.338c-1.17,0-1.95-0.416-1.95-2.704v-6.994
				H612.07z M622.86,271h1.586v-7.748c0-3.276-1.17-5.252-4.94-5.252c-1.664,0-3.64,0.572-4.81,1.118l0.598,1.586
				c0.988-0.546,2.652-1.092,4.134-1.092c2.21,0,3.25,1.17,3.25,3.276v0.702c-1.144-0.286-2.028-0.39-2.886-0.39
				c-2.704,0-5.616,1.222-5.616,4.342c0,2.392,2.054,3.77,4.394,3.77c1.456,0,2.938-0.468,4.16-1.794L622.86,271z M622.678,265.02
				v2.938c-1.196,1.144-2.6,1.898-4.056,1.898c-1.482,0-2.678-0.988-2.678-2.522c0-1.976,2.028-2.678,3.77-2.678
				C620.624,264.656,621.586,264.76,622.678,265.02L622.678,265.02z M630.764,251.5h-1.768V271h1.768V251.5z M640.722,258
				c-3.77,0-6.396,2.964-6.396,6.656c0,3.692,2.626,6.656,6.396,6.656c3.77,0,6.396-2.964,6.396-6.656
				C647.118,260.964,644.492,258,640.722,258L640.722,258z M645.298,264.656c0,2.652-1.742,5.044-4.576,5.044
				c-2.834,0-4.576-2.392-4.576-5.044s1.742-5.044,4.576-5.044C643.556,259.612,645.298,262.004,645.298,264.656L645.298,264.656z
				 M661.86,258.312h-1.768v1.248c-1.092-1.014-2.626-1.56-4.056-1.56c-3.718,0-6.526,3.094-6.526,6.552s2.782,6.448,6.5,6.448
				c1.56,0,3.12-0.676,4.082-1.95v1.768c0,3.12-2.262,4.29-4.654,4.29c-1.82,0-3.692-0.78-4.81-1.664l-0.728,1.482
				c1.586,1.066,3.614,1.794,5.564,1.794c3.38,0,6.396-1.976,6.396-6.448V258.312z M660.092,266.996
				c-0.728,1.482-2.47,2.392-4.03,2.392c-2.782,0-4.732-2.366-4.732-4.94c0-2.548,1.976-4.836,4.732-4.836
				c1.456,0,3.094,0.78,4.03,2.002V266.996z M668.178,271v-12.688h-1.768V271H668.178z M668.178,255.478v-2.444h-1.768v2.444
				H668.178z M683.518,265.098c0.026-0.234,0.078-0.754,0.078-1.17c0-3.146-2.366-5.928-5.642-5.928
				c-3.458,0-6.214,2.834-6.214,6.578c0,3.718,2.262,6.734,6.422,6.734c1.924,0,4.134-0.988,5.148-2.886l-1.248-0.806
				c-0.91,1.716-2.34,2.184-4.03,2.184c-2.756,0-4.368-2.262-4.524-4.706H683.518z M681.854,263.59h-8.294
				c0.364-2.366,1.95-4.082,4.394-4.082C680.112,259.508,681.75,261.458,681.854,263.59L681.854,263.59z M418.292,310.8h-1.924
				v13.416c0,2.236-0.26,3.328-2.522,3.328c-0.546,0-1.04-0.13-1.482-0.312l-0.468,1.638c0.624,0.208,1.43,0.442,2.288,0.442
				c3.198,0,4.108-1.924,4.108-4.81V310.8z M433.814,323.098c0.026-0.234,0.078-0.754,0.078-1.17c0-3.146-2.366-5.928-5.642-5.928
				c-3.458,0-6.214,2.834-6.214,6.578c0,3.718,2.262,6.734,6.422,6.734c1.924,0,4.134-0.988,5.148-2.886l-1.248-0.806
				c-0.91,1.716-2.34,2.184-4.03,2.184c-2.756,0-4.368-2.262-4.524-4.706H433.814z M432.15,321.59h-8.294
				c0.364-2.366,1.95-4.082,4.394-4.082C430.408,317.508,432.046,319.458,432.15,321.59L432.15,321.59z M450.844,317.222
				c-0.988-0.806-2.158-1.222-3.484-1.222c-2.132,0-3.952,1.222-3.952,3.406c0,2.314,1.794,3.068,3.458,3.744
				c1.43,0.572,2.782,1.092,2.782,2.548s-1.43,2.106-2.652,2.106c-1.196,0-2.158-0.52-2.912-1.326l-1.066,1.118
				c1.04,1.144,2.496,1.716,3.926,1.716c2.132,0,4.472-1.352,4.472-3.588c0-2.262-1.534-3.146-3.094-3.796
				c-1.612-0.676-3.25-1.17-3.25-2.678c0-1.196,1.248-1.742,2.236-1.742c0.936,0,1.872,0.364,2.574,0.91L450.844,317.222z
				 M466.236,329v-12.688h-1.768v8.424c-0.832,1.612-2.366,2.964-4.264,2.964c-2.834,0-3.276-2.418-3.276-4.81v-6.578h-1.768v6.864
				c0,3.822,1.17,6.136,4.784,6.136c1.95,0,3.51-0.858,4.524-2.548V329H466.236z M472.736,329v-12.688h-1.768V329H472.736z
				 M472.736,313.478v-2.444h-1.768v2.444H472.736z M484.358,317.222c-0.988-0.806-2.158-1.222-3.484-1.222
				c-2.132,0-3.952,1.222-3.952,3.406c0,2.314,1.794,3.068,3.458,3.744c1.43,0.572,2.782,1.092,2.782,2.548s-1.43,2.106-2.652,2.106
				c-1.196,0-2.158-0.52-2.912-1.326l-1.066,1.118c1.04,1.144,2.496,1.716,3.926,1.716c2.132,0,4.472-1.352,4.472-3.588
				c0-2.262-1.534-3.146-3.094-3.796c-1.612-0.676-3.25-1.17-3.25-2.678c0-1.196,1.248-1.742,2.236-1.742
				c0.936,0,1.872,0.364,2.574,0.91L484.358,317.222z M506.25,329v-12.688h-1.768v8.424c-0.832,1.612-2.366,2.964-4.264,2.964
				c-2.834,0-3.276-2.418-3.276-4.81v-6.578h-1.768v6.864c0,3.822,1.17,6.136,4.784,6.136c1.95,0,3.51-0.858,4.524-2.548V329H506.25
				z M510.982,316.312V329h1.768v-8.424c0.832-1.612,2.366-2.964,4.264-2.964c2.834,0,3.276,2.418,3.276,4.81V329h1.768v-6.864
				c0-3.822-1.17-6.136-4.784-6.136c-1.95,0-3.51,0.858-4.524,2.548v-2.236H510.982z M533.108,316.312V335.5h1.768v-7.748
				c1.092,1.014,2.626,1.56,4.056,1.56c3.718,0,6.526-3.094,6.526-6.708c0-3.614-2.782-6.604-6.5-6.604
				c-1.56,0-3.12,0.676-4.082,1.95v-1.638H533.108z M534.876,320.004c0.728-1.482,2.47-2.392,4.03-2.392
				c2.782,0,4.732,2.366,4.732,5.096c0,2.704-1.976,4.992-4.732,4.992c-1.456,0-3.094-0.78-4.03-2.002V320.004z M550.788,316.312
				h-1.768V329h1.768v-8.476c0.91-1.612,1.872-2.704,3.328-2.704c0.494,0,0.806,0.052,1.196,0.234l0.234-1.95
				c-0.364-0.078-0.728-0.104-1.066-0.104c-1.768,0-2.99,1.3-3.692,2.704V316.312z M563.294,316c-3.77,0-6.396,2.964-6.396,6.656
				c0,3.692,2.626,6.656,6.396,6.656s6.396-2.964,6.396-6.656C569.69,318.964,567.064,316,563.294,316L563.294,316z M567.87,322.656
				c0,2.652-1.742,5.044-4.576,5.044s-4.576-2.392-4.576-5.044s1.742-5.044,4.576-5.044S567.87,320.004,567.87,322.656
				L567.87,322.656z M584.432,316.312h-1.768v1.248c-1.092-1.014-2.626-1.56-4.056-1.56c-3.718,0-6.526,3.094-6.526,6.552
				s2.782,6.448,6.5,6.448c1.56,0,3.12-0.676,4.082-1.95v1.768c0,3.12-2.262,4.29-4.654,4.29c-1.82,0-3.692-0.78-4.81-1.664
				l-0.728,1.482c1.586,1.066,3.614,1.794,5.564,1.794c3.38,0,6.396-1.976,6.396-6.448V316.312z M582.664,324.996
				c-0.728,1.482-2.47,2.392-4.03,2.392c-2.782,0-4.732-2.366-4.732-4.94c0-2.548,1.976-4.836,4.732-4.836
				c1.456,0,3.094,0.78,4.03,2.002V324.996z M590.75,316.312h-1.768V329h1.768v-8.476c0.91-1.612,1.872-2.704,3.328-2.704
				c0.494,0,0.806,0.052,1.196,0.234l0.234-1.95c-0.364-0.078-0.728-0.104-1.066-0.104c-1.768,0-2.99,1.3-3.692,2.704V316.312z
				 M605.778,329h1.586v-7.748c0-3.276-1.17-5.252-4.94-5.252c-1.664,0-3.64,0.572-4.81,1.118l0.598,1.586
				c0.988-0.546,2.652-1.092,4.134-1.092c2.21,0,3.25,1.17,3.25,3.276v0.702c-1.144-0.286-2.028-0.39-2.886-0.39
				c-2.704,0-5.616,1.222-5.616,4.342c0,2.392,2.054,3.77,4.394,3.77c1.456,0,2.938-0.468,4.16-1.794L605.778,329z M605.596,323.02
				v2.938c-1.196,1.144-2.6,1.898-4.056,1.898c-1.482,0-2.678-0.988-2.678-2.522c0-1.976,2.028-2.678,3.77-2.678
				C603.542,322.656,604.504,322.76,605.596,323.02L605.596,323.02z M611.914,316.312V329h1.768v-8.424
				c0.832-1.612,2.366-2.964,3.978-2.964c2.548,0,2.99,2.418,2.99,4.81V329h1.768v-6.916c0-0.65-0.026-1.248-0.104-1.82
				c0.962-1.638,2.496-2.652,4.004-2.652c2.522,0,3.068,2.392,3.068,4.81V329h1.768v-6.864c0-3.978-1.378-6.136-4.758-6.136
				c-1.586,0-2.86,0.572-4.472,2.626c-0.624-1.664-1.872-2.626-4.004-2.626c-1.664,0-3.224,0.858-4.238,2.548v-2.236H611.914z
				 M635.704,316.312V329h1.768v-8.424c0.832-1.612,2.366-2.964,3.978-2.964c2.548,0,2.99,2.418,2.99,4.81V329h1.768v-6.916
				c0-0.65-0.026-1.248-0.104-1.82c0.962-1.638,2.496-2.652,4.004-2.652c2.522,0,3.068,2.392,3.068,4.81V329h1.768v-6.864
				c0-3.978-1.378-6.136-4.758-6.136c-1.586,0-2.86,0.572-4.472,2.626c-0.624-1.664-1.872-2.626-4.004-2.626
				c-1.664,0-3.224,0.858-4.238,2.548v-2.236H635.704z M670.102,323.098c0.026-0.234,0.078-0.754,0.078-1.17
				c0-3.146-2.366-5.928-5.642-5.928c-3.458,0-6.214,2.834-6.214,6.578c0,3.718,2.262,6.734,6.422,6.734
				c1.924,0,4.134-0.988,5.148-2.886l-1.248-0.806c-0.91,1.716-2.34,2.184-4.03,2.184c-2.756,0-4.368-2.262-4.524-4.706H670.102z
				 M668.438,321.59h-8.294c0.364-2.366,1.95-4.082,4.394-4.082C666.696,317.508,668.334,319.458,668.438,321.59L668.438,321.59z
				 M688.328,326.868c-0.624,0.468-1.872,0.832-2.678,0.832c-2.938,0-4.758-2.184-4.758-5.044c0-2.73,1.82-5.044,4.706-5.044
				c0.858,0,1.95,0.26,2.652,0.728l0.65-1.482c-0.91-0.52-2.002-0.858-3.172-0.858c-3.874,0-6.656,2.938-6.656,6.656
				c0,3.796,2.756,6.656,6.708,6.656c1.326,0,2.418-0.39,3.458-1.092L688.328,326.868z M694.048,316.312h-1.768V329h1.768v-8.476
				c0.91-1.612,1.872-2.704,3.328-2.704c0.494,0,0.806,0.052,1.196,0.234l0.234-1.95c-0.364-0.078-0.728-0.104-1.066-0.104
				c-1.768,0-2.99,1.3-3.692,2.704V316.312z M711.936,323.098c0.026-0.234,0.078-0.754,0.078-1.17c0-3.146-2.366-5.928-5.642-5.928
				c-3.458,0-6.214,2.834-6.214,6.578c0,3.718,2.262,6.734,6.422,6.734c1.924,0,4.134-0.988,5.148-2.886l-1.248-0.806
				c-0.91,1.716-2.34,2.184-4.03,2.184c-2.756,0-4.368-2.262-4.524-4.706H711.936z M710.272,321.59h-8.294
				c0.364-2.366,1.95-4.082,4.394-4.082C708.53,317.508,710.168,319.458,710.272,321.59L710.272,321.59z M709.258,310.514
				l-1.326-1.014l-3.068,4.108l1.118,0.884L709.258,310.514z M726.184,323.098c0.026-0.234,0.078-0.754,0.078-1.17
				c0-3.146-2.366-5.928-5.642-5.928c-3.458,0-6.214,2.834-6.214,6.578c0,3.718,2.262,6.734,6.422,6.734
				c1.924,0,4.134-0.988,5.148-2.886l-1.248-0.806c-0.91,1.716-2.34,2.184-4.03,2.184c-2.756,0-4.368-2.262-4.524-4.706H726.184z
				 M724.52,321.59h-8.294c0.364-2.366,1.95-4.082,4.394-4.082C722.778,317.508,724.416,319.458,724.52,321.59L724.52,321.59z
				 M723.506,310.514l-1.326-1.014l-3.068,4.108l1.118,0.884L723.506,310.514z M736.324,316.312V335.5h1.768v-7.748
				c1.092,1.014,2.626,1.56,4.056,1.56c3.718,0,6.526-3.094,6.526-6.708c0-3.614-2.782-6.604-6.5-6.604
				c-1.56,0-3.12,0.676-4.082,1.95v-1.638H736.324z M738.092,320.004c0.728-1.482,2.47-2.392,4.03-2.392
				c2.782,0,4.732,2.366,4.732,5.096c0,2.704-1.976,4.992-4.732,4.992c-1.456,0-3.094-0.78-4.03-2.002V320.004z M757.462,316
				c-3.77,0-6.396,2.964-6.396,6.656c0,3.692,2.626,6.656,6.396,6.656c3.77,0,6.396-2.964,6.396-6.656
				C763.858,318.964,761.232,316,757.462,316L757.462,316z M762.038,322.656c0,2.652-1.742,5.044-4.576,5.044
				c-2.834,0-4.576-2.392-4.576-5.044s1.742-5.044,4.576-5.044C760.296,317.612,762.038,320.004,762.038,322.656L762.038,322.656z
				 M778.314,329v-12.688h-1.768v8.424c-0.832,1.612-2.366,2.964-4.264,2.964c-2.834,0-3.276-2.418-3.276-4.81v-6.578h-1.768v6.864
				c0,3.822,1.17,6.136,4.784,6.136c1.95,0,3.51-0.858,4.524-2.548V329H778.314z M784.814,316.312h-1.768V329h1.768v-8.476
				c0.91-1.612,1.872-2.704,3.328-2.704c0.494,0,0.806,0.052,1.196,0.234l0.234-1.95c-0.364-0.078-0.728-0.104-1.066-0.104
				c-1.768,0-2.99,1.3-3.692,2.704V316.312z M804.314,317.924v-1.612h-3.692v-3.172h-1.768v3.172h-1.794v1.612h1.794v7.202
				c0,2.626,1.222,4.108,3.692,4.108c0.754,0,1.456-0.234,2.028-0.546l-0.442-1.404c-0.572,0.208-1.092,0.338-1.56,0.338
				c-1.17,0-1.95-0.416-1.95-2.704v-6.994H804.314z M817.964,323.098c0.026-0.234,0.078-0.754,0.078-1.17
				c0-3.146-2.366-5.928-5.642-5.928c-3.458,0-6.214,2.834-6.214,6.578c0,3.718,2.262,6.734,6.422,6.734
				c1.924,0,4.134-0.988,5.148-2.886l-1.248-0.806c-0.91,1.716-2.34,2.184-4.03,2.184c-2.756,0-4.368-2.262-4.524-4.706H817.964z
				 M816.3,321.59h-8.294c0.364-2.366,1.95-4.082,4.394-4.082C814.558,317.508,816.196,319.458,816.3,321.59L816.3,321.59z
				 M421.1,341.656c-0.598-0.208-1.456-0.468-2.288-0.468c-1.56,0-2.522,0.598-3.12,1.482c-0.598,0.884-0.806,2.106-0.806,3.406
				v2.236h-1.482v1.612h1.482V361h1.768v-11.076h3.562v-1.612h-3.562v-2.08c0-1.404,0.104-2.444,0.806-2.99
				c0.468-0.364,1.092-0.442,1.612-0.442c0.624,0,1.144,0.13,1.586,0.312L421.1,341.656z M430.59,361h1.586v-7.748
				c0-3.276-1.17-5.252-4.94-5.252c-1.664,0-3.64,0.572-4.81,1.118l0.598,1.586c0.988-0.546,2.652-1.092,4.134-1.092
				c2.21,0,3.25,1.17,3.25,3.276v0.702c-1.144-0.286-2.028-0.39-2.886-0.39c-2.704,0-5.616,1.222-5.616,4.342
				c0,2.392,2.054,3.77,4.394,3.77c1.456,0,2.938-0.468,4.16-1.794L430.59,361z M430.408,355.02v2.938
				c-1.196,1.144-2.6,1.898-4.056,1.898c-1.482,0-2.678-0.988-2.678-2.522c0-1.976,2.028-2.678,3.77-2.678
				C428.354,354.656,429.316,354.76,430.408,355.02L430.408,355.02z M438.494,361v-12.688h-1.768V361H438.494z M438.494,345.478
				v-2.444h-1.768v2.444H438.494z M444.994,348.312h-1.768V361h1.768v-8.476c0.91-1.612,1.872-2.704,3.328-2.704
				c0.494,0,0.806,0.052,1.196,0.234l0.234-1.95c-0.364-0.078-0.728-0.104-1.066-0.104c-1.768,0-2.99,1.3-3.692,2.704V348.312z
				 M462.882,355.098c0.026-0.234,0.078-0.754,0.078-1.17c0-3.146-2.366-5.928-5.642-5.928c-3.458,0-6.214,2.834-6.214,6.578
				c0,3.718,2.262,6.734,6.422,6.734c1.924,0,4.134-0.988,5.148-2.886l-1.248-0.806c-0.91,1.716-2.34,2.184-4.03,2.184
				c-2.756,0-4.368-2.262-4.524-4.706H462.882z M461.218,353.59h-8.294c0.364-2.366,1.95-4.082,4.394-4.082
				C459.476,349.508,461.114,351.458,461.218,353.59L461.218,353.59z M475.44,361h2.184l4.732-12.688h-1.898l-3.822,10.738
				l-3.588-10.738h-1.924L475.44,361z M486.802,361v-12.688h-1.768V361H486.802z M486.802,345.478v-2.444h-1.768v2.444H486.802z
				 M493.952,361h2.184l4.732-12.688h-1.898l-3.822,10.738l-3.588-10.738h-1.924L493.952,361z M505.314,348.312h-1.768V361h1.768
				v-8.476c0.91-1.612,1.872-2.704,3.328-2.704c0.494,0,0.806,0.052,1.196,0.234l0.234-1.95c-0.364-0.078-0.728-0.104-1.066-0.104
				c-1.768,0-2.99,1.3-3.692,2.704V348.312z M523.202,355.098c0.026-0.234,0.078-0.754,0.078-1.17c0-3.146-2.366-5.928-5.642-5.928
				c-3.458,0-6.214,2.834-6.214,6.578c0,3.718,2.262,6.734,6.422,6.734c1.924,0,4.134-0.988,5.148-2.886l-1.248-0.806
				c-0.91,1.716-2.34,2.184-4.03,2.184c-2.756,0-4.368-2.262-4.524-4.706H523.202z M521.538,353.59h-8.294
				c0.364-2.366,1.95-4.082,4.394-4.082C519.796,349.508,521.434,351.458,521.538,353.59L521.538,353.59z M544.236,361v-12.688
				h-1.768v8.424c-0.832,1.612-2.366,2.964-4.264,2.964c-2.834,0-3.276-2.418-3.276-4.81v-6.578h-1.768v6.864
				c0,3.822,1.17,6.136,4.784,6.136c1.95,0,3.51-0.858,4.524-2.548V361H544.236z M548.968,348.312V361h1.768v-8.424
				c0.832-1.612,2.366-2.964,4.264-2.964c2.834,0,3.276,2.418,3.276,4.81V361h1.768v-6.864c0-3.822-1.17-6.136-4.784-6.136
				c-1.95,0-3.51,0.858-4.524,2.548v-2.236H548.968z M575.202,355.098c0.026-0.234,0.078-0.754,0.078-1.17
				c0-3.146-2.366-5.928-5.642-5.928c-3.458,0-6.214,2.834-6.214,6.578c0,3.718,2.262,6.734,6.422,6.734
				c1.924,0,4.134-0.988,5.148-2.886l-1.248-0.806c-0.91,1.716-2.34,2.184-4.03,2.184c-2.756,0-4.368-2.262-4.524-4.706H575.202z
				 M573.538,353.59h-8.294c0.364-2.366,1.95-4.082,4.394-4.082C571.796,349.508,573.434,351.458,573.538,353.59L573.538,353.59z
				 M585.342,348.312V367.5h1.768v-7.748c1.092,1.014,2.626,1.56,4.056,1.56c3.718,0,6.526-3.094,6.526-6.708
				c0-3.614-2.782-6.604-6.5-6.604c-1.56,0-3.12,0.676-4.082,1.95v-1.638H585.342z M587.11,352.004
				c0.728-1.482,2.47-2.392,4.03-2.392c2.782,0,4.732,2.366,4.732,5.096c0,2.704-1.976,4.992-4.732,4.992
				c-1.456,0-3.094-0.78-4.03-2.002V352.004z M611.862,355.098c0.026-0.234,0.078-0.754,0.078-1.17c0-3.146-2.366-5.928-5.642-5.928
				c-3.458,0-6.214,2.834-6.214,6.578c0,3.718,2.262,6.734,6.422,6.734c1.924,0,4.134-0.988,5.148-2.886l-1.248-0.806
				c-0.91,1.716-2.34,2.184-4.03,2.184c-2.756,0-4.368-2.262-4.524-4.706H611.862z M610.198,353.59h-8.294
				c0.364-2.366,1.95-4.082,4.394-4.082C608.456,349.508,610.094,351.458,610.198,353.59L610.198,353.59z M621.222,349.924v-1.612
				h-3.692v-3.172h-1.768v3.172h-1.794v1.612h1.794v7.202c0,2.626,1.222,4.108,3.692,4.108c0.754,0,1.456-0.234,2.028-0.546
				l-0.442-1.404c-0.572,0.208-1.092,0.338-1.56,0.338c-1.17,0-1.95-0.416-1.95-2.704v-6.994H621.222z M626.032,361v-12.688h-1.768
				V361H626.032z M626.032,345.478v-2.444h-1.768v2.444H626.032z M636.484,349.924v-1.612h-3.692v-3.172h-1.768v3.172h-1.794v1.612
				h1.794v7.202c0,2.626,1.222,4.108,3.692,4.108c0.754,0,1.456-0.234,2.028-0.546l-0.442-1.404
				c-0.572,0.208-1.092,0.338-1.56,0.338c-1.17,0-1.95-0.416-1.95-2.704v-6.994H636.484z M650.134,355.098
				c0.026-0.234,0.078-0.754,0.078-1.17c0-3.146-2.366-5.928-5.642-5.928c-3.458,0-6.214,2.834-6.214,6.578
				c0,3.718,2.262,6.734,6.422,6.734c1.924,0,4.134-0.988,5.148-2.886l-1.248-0.806c-0.91,1.716-2.34,2.184-4.03,2.184
				c-2.756,0-4.368-2.262-4.524-4.706H650.134z M648.47,353.59h-8.294c0.364-2.366,1.95-4.082,4.394-4.082
				C646.728,349.508,648.366,351.458,648.47,353.59L648.47,353.59z M670.882,355.098c0.026-0.234,0.078-0.754,0.078-1.17
				c0-3.146-2.366-5.928-5.642-5.928c-3.458,0-6.214,2.834-6.214,6.578c0,3.718,2.262,6.734,6.422,6.734
				c1.924,0,4.134-0.988,5.148-2.886l-1.248-0.806c-0.91,1.716-2.34,2.184-4.03,2.184c-2.756,0-4.368-2.262-4.524-4.706H670.882z
				 M669.218,353.59h-8.294c0.364-2.366,1.95-4.082,4.394-4.082C667.476,349.508,669.114,351.458,669.218,353.59L669.218,353.59z
				 M681.542,361h2.21l-4.498-6.448l4.342-6.24h-2.184l-3.25,4.862l-3.328-4.862h-2.21l4.264,6.188l-4.42,6.5h2.184l3.38-5.096
				L681.542,361z M686.43,348.312V367.5h1.768v-7.748c1.092,1.014,2.626,1.56,4.056,1.56c3.718,0,6.526-3.094,6.526-6.708
				c0-3.614-2.782-6.604-6.5-6.604c-1.56,0-3.12,0.676-4.082,1.95v-1.638H686.43z M688.198,352.004
				c0.728-1.482,2.47-2.392,4.03-2.392c2.782,0,4.732,2.366,4.732,5.096c0,2.704-1.976,4.992-4.732,4.992
				c-1.456,0-3.094-0.78-4.03-2.002V352.004z M712.95,355.098c0.026-0.234,0.078-0.754,0.078-1.17c0-3.146-2.366-5.928-5.642-5.928
				c-3.458,0-6.214,2.834-6.214,6.578c0,3.718,2.262,6.734,6.422,6.734c1.924,0,4.134-0.988,5.148-2.886l-1.248-0.806
				c-0.91,1.716-2.34,2.184-4.03,2.184c-2.756,0-4.368-2.262-4.524-4.706H712.95z M711.286,353.59h-8.294
				c0.364-2.366,1.95-4.082,4.394-4.082C709.544,349.508,711.182,351.458,711.286,353.59L711.286,353.59z M710.272,342.514
				l-1.326-1.014l-3.068,4.108l1.118,0.884L710.272,342.514z M718.358,348.312h-1.768V361h1.768v-8.476
				c0.91-1.612,1.872-2.704,3.328-2.704c0.494,0,0.806,0.052,1.196,0.234l0.234-1.95c-0.364-0.078-0.728-0.104-1.066-0.104
				c-1.768,0-2.99,1.3-3.692,2.704V348.312z M727.406,361v-12.688h-1.768V361H727.406z M727.406,345.478v-2.444h-1.768v2.444
				H727.406z M742.746,355.098c0.026-0.234,0.078-0.754,0.078-1.17c0-3.146-2.366-5.928-5.642-5.928
				c-3.458,0-6.214,2.834-6.214,6.578c0,3.718,2.262,6.734,6.422,6.734c1.924,0,4.134-0.988,5.148-2.886l-1.248-0.806
				c-0.91,1.716-2.34,2.184-4.03,2.184c-2.756,0-4.368-2.262-4.524-4.706H742.746z M741.082,353.59h-8.294
				c0.364-2.366,1.95-4.082,4.394-4.082C739.34,349.508,740.978,351.458,741.082,353.59L741.082,353.59z M746.386,348.312V361h1.768
				v-8.424c0.832-1.612,2.366-2.964,4.264-2.964c2.834,0,3.276,2.418,3.276,4.81V361h1.768v-6.864c0-3.822-1.17-6.136-4.784-6.136
				c-1.95,0-3.51,0.858-4.524,2.548v-2.236H746.386z M770.098,358.868c-0.624,0.468-1.872,0.832-2.678,0.832
				c-2.938,0-4.758-2.184-4.758-5.044c0-2.73,1.82-5.044,4.706-5.044c0.858,0,1.95,0.26,2.652,0.728l0.65-1.482
				c-0.91-0.52-2.002-0.858-3.172-0.858c-3.874,0-6.656,2.938-6.656,6.656c0,3.796,2.756,6.656,6.708,6.656
				c1.326,0,2.418-0.39,3.458-1.092L770.098,358.868z M784.658,355.098c0.026-0.234,0.078-0.754,0.078-1.17
				c0-3.146-2.366-5.928-5.642-5.928c-3.458,0-6.214,2.834-6.214,6.578c0,3.718,2.262,6.734,6.422,6.734
				c1.924,0,4.134-0.988,5.148-2.886l-1.248-0.806c-0.91,1.716-2.34,2.184-4.03,2.184c-2.756,0-4.368-2.262-4.524-4.706H784.658z
				 M782.994,353.59H774.7c0.364-2.366,1.95-4.082,4.394-4.082C781.252,349.508,782.89,351.458,782.994,353.59L782.994,353.59z"/>
		</g>
	</g>
</g>
<g id="hover">
	<rect x="391.5" y="0.5" fill="none" stroke="#000000" stroke-width="10" stroke-miterlimit="10" width="632" height="767"/>
	<rect x="-0.5" y="0.5" fill="none" stroke="#000000" stroke-width="10" stroke-miterlimit="10" width="392" height="767"/>
</g>
</svg>
